<?xml version="1.0" standalone="no"?>
<!DOCTYPE svg PUBLIC "-//W3C//DTD SVG 20010904//EN"
 "http://www.w3.org/TR/2001/REC-SVG-20010904/DTD/svg10.dtd">
<svg version="1.0" xmlns="http://www.w3.org/2000/svg"
 width="159.000000pt" height="153.000000pt" viewBox="0 0 159.000000 153.000000"
 preserveAspectRatio="xMidYMid meet">
<metadata>
Created by potrace 1.16, written by Peter Selinger 2001-2019
</metadata>
<g transform="translate(0.000000,153.000000) scale(0.100000,-0.100000)"
fill="#000000" stroke="none">
<path d="M588 1518 c-2 -6 -15 -13 -28 -15 -45 -7 -100 -38 -106 -60 -8 -30
10 -58 46 -73 20 -8 30 -19 30 -34 0 -13 11 -33 25 -46 28 -26 32 -52 11 -69
-9 -8 -15 -45 -18 -119 -7 -155 -38 -202 -124 -186 -33 6 -34 5 -34 -25 0 -22
9 -39 35 -62 27 -25 35 -40 35 -67 0 -25 9 -45 35 -73 19 -22 35 -46 35 -54 0
-8 -14 -30 -31 -49 -17 -20 -33 -51 -36 -73 -8 -49 -16 -59 -57 -66 -19 -3
-53 -19 -76 -36 -31 -23 -54 -31 -84 -31 -26 0 -64 -11 -101 -30 -33 -17 -77
-33 -98 -36 -20 -4 -40 -10 -42 -14 -3 -4 12 -19 33 -34 48 -33 106 -35 157
-5 l36 21 40 -43 c44 -48 65 -51 108 -18 48 38 70 24 101 -66 11 -32 28 -67
37 -77 29 -32 101 -58 164 -58 31 0 80 -5 108 -12 59 -13 85 -1 75 37 -4 15 5
47 22 85 24 54 26 65 15 99 -14 50 -14 114 1 129 9 9 8 23 -6 62 -25 70 -16
98 64 185 41 44 84 103 105 146 20 39 53 96 72 125 35 53 37 54 132 83 53 17
128 35 166 41 106 16 117 28 137 146 21 126 18 240 -8 285 -47 81 -201 125
-262 75 -15 -12 -47 -34 -72 -48 -25 -14 -56 -38 -69 -52 -28 -29 -67 -34 -97
-11 -28 21 -44 18 -44 -9 0 -54 -44 -60 -189 -25 -106 25 -143 47 -186 115
-34 53 -50 65 -57 42z"/>
</g>
</svg>
