<?xml version="1.0" standalone="no"?>
<!DOCTYPE svg PUBLIC "-//W3C//DTD SVG 20010904//EN"
 "http://www.w3.org/TR/2001/REC-SVG-20010904/DTD/svg10.dtd">
<svg version="1.0" xmlns="http://www.w3.org/2000/svg"
 width="139.000000pt" height="148.000000pt" viewBox="0 0 139.000000 148.000000"
 preserveAspectRatio="xMidYMid meet">
<metadata>
Created by potrace 1.16, written by Peter Selinger 2001-2019
</metadata>
<g transform="translate(0.000000,148.000000) scale(0.100000,-0.100000)"
fill="#000000" stroke="none">
<path d="M1050 1472 c-8 -4 -30 -18 -48 -31 -29 -22 -32 -30 -32 -76 0 -57
-19 -92 -53 -97 -27 -4 -65 -70 -66 -116 -1 -49 -15 -67 -81 -112 -59 -40 -60
-41 -60 -88 0 -43 -4 -52 -43 -90 -23 -23 -48 -42 -55 -42 -17 0 -32 -34 -32
-75 0 -53 -13 -70 -75 -100 -48 -22 -55 -29 -55 -55 0 -20 -6 -31 -20 -35 -17
-5 -19 -12 -14 -43 7 -42 -13 -68 -55 -74 -18 -2 -27 -12 -33 -35 -7 -27 -49
-70 -95 -97 -7 -3 -42 3 -79 15 -91 30 -136 20 -145 -31 -3 -21 0 -45 9 -60
22 -40 85 -80 127 -80 25 0 43 -8 62 -26 32 -33 89 -50 108 -34 8 7 28 9 49 4
21 -3 36 -2 36 3 0 12 44 33 70 33 10 0 31 -11 47 -24 63 -52 91 -61 213 -62
97 -1 121 -5 155 -23 47 -25 132 -28 174 -6 21 10 30 24 34 53 4 22 17 48 32
62 17 16 25 34 25 56 0 40 10 47 75 54 45 5 51 8 72 45 21 35 23 48 17 108
l-6 67 42 39 42 38 -12 44 c-7 24 -23 65 -36 91 -31 61 -30 77 6 111 37 35 38
53 4 80 -23 18 -25 25 -20 60 6 37 4 44 -33 81 -63 65 -70 156 -17 215 21 24
20 43 -4 69 -14 15 -33 22 -59 22 -41 0 -64 18 -76 60 -4 14 -15 34 -25 45
-10 11 -21 30 -25 43 -6 22 -18 26 -45 14z"/>
</g>
</svg>
