<?xml version="1.0" standalone="no"?>
<!DOCTYPE svg PUBLIC "-//W3C//DTD SVG 20010904//EN"
 "http://www.w3.org/TR/2001/REC-SVG-20010904/DTD/svg10.dtd">
<svg version="1.0" xmlns="http://www.w3.org/2000/svg"
 width="218.000000pt" height="264.000000pt" viewBox="0 0 218.000000 264.000000"
 preserveAspectRatio="xMidYMid meet">
<g transform="translate(0.000000,264.000000) scale(0.100000,-0.100000)"
fill="#000000" stroke="none">
<path d="M1883 2615 c-13 -13 -23 -30 -23 -37 0 -8 -9 -20 -20 -28 -11 -8 -20
-22 -20 -32 0 -10 -4 -18 -10 -18 -5 0 -10 -9 -10 -20 0 -11 -4 -20 -10 -20
-5 0 -10 -7 -10 -15 0 -22 -52 -73 -58 -57 -2 7 -23 12 -53 12 -27 0 -49 5
-49 10 0 6 -29 10 -66 10 -60 0 -68 -3 -94 -30 -16 -17 -38 -30 -52 -30 -13 0
-30 -9 -38 -20 -8 -12 -26 -20 -42 -20 -15 0 -28 -4 -28 -10 0 -6 -27 -10 -60
-10 -33 0 -60 4 -60 10 0 6 -27 10 -60 10 -33 0 -60 4 -60 10 0 6 -9 10 -20
10 -11 0 -20 5 -20 10 0 6 -18 10 -40 10 -22 0 -40 5 -40 10 0 6 -22 10 -50
10 l-50 0 0 -169 c0 -126 3 -171 13 -175 10 -5 10 -7 0 -12 -8 -3 -13 -24 -13
-51 0 -39 -5 -49 -40 -83 -32 -31 -40 -46 -40 -74 0 -20 -4 -36 -10 -36 -5 0
-10 -16 -10 -35 0 -25 -8 -44 -25 -60 -21 -22 -33 -25 -100 -25 l-75 0 0 -45
c0 -44 3 -49 90 -135 87 -86 90 -91 90 -135 0 -25 -4 -45 -10 -45 -5 0 -10
-22 -10 -50 0 -27 5 -50 10 -50 6 0 10 -9 10 -20 0 -11 5 -20 10 -20 6 0 10
-8 10 -18 0 -10 9 -24 20 -32 21 -15 28 -70 10 -70 -5 0 -10 -13 -10 -30 0
-16 -4 -30 -10 -30 -5 0 -10 -9 -10 -20 0 -11 -4 -20 -10 -20 -5 0 -10 -13
-10 -28 0 -16 -8 -34 -20 -42 -14 -10 -20 -26 -20 -52 0 -21 -4 -38 -10 -38
-5 0 -10 -11 -10 -25 0 -16 -13 -39 -35 -60 -29 -30 -41 -35 -80 -35 -25 0
-45 -4 -45 -10 0 -5 -9 -10 -20 -10 -11 0 -20 -4 -20 -10 0 -5 -22 -10 -50
-10 -38 0 -50 -4 -50 -15 0 -20 -65 -85 -85 -85 -8 0 -15 5 -15 10 0 6 -37 10
-90 10 -53 0 -90 -4 -90 -10 0 -5 -13 -10 -30 -10 -23 0 -30 -4 -30 -20 0 -11
-4 -20 -10 -20 -5 0 -10 -9 -10 -20 0 -15 7 -20 28 -20 16 0 34 -8 42 -20 8
-12 26 -20 42 -20 15 0 28 -4 28 -10 0 -6 33 -10 80 -10 47 0 80 4 80 10 0 6
9 10 20 10 11 0 20 5 20 10 0 6 9 10 20 10 11 0 20 5 20 10 0 6 8 10 18 10 10
0 24 9 32 20 8 12 26 20 42 20 15 0 28 5 28 10 0 6 5 10 10 10 6 0 10 -18 10
-40 0 -22 5 -40 10 -40 6 0 10 -27 10 -60 0 -33 4 -60 10 -60 6 0 10 -9 10
-20 0 -11 5 -20 10 -20 6 0 10 -22 10 -50 0 -27 5 -50 10 -50 6 0 10 -16 10
-36 0 -36 18 -64 42 -64 8 0 20 -9 28 -20 10 -14 26 -20 52 -20 21 0 38 -4 38
-10 0 -6 27 -10 60 -10 53 0 60 2 60 20 0 11 5 20 10 20 6 0 10 47 10 120 0
73 -4 120 -10 120 -5 0 -10 13 -10 28 0 16 -8 34 -20 42 -11 8 -20 25 -20 39
0 13 -9 32 -21 42 l-21 18 51 50 51 50 0 75 c0 44 -4 76 -10 76 -5 0 -10 11
-10 25 0 19 35 61 145 170 80 80 150 145 156 145 6 0 24 14 39 30 15 17 33 30
39 30 15 0 81 66 81 81 0 6 14 24 30 39 18 17 30 38 30 54 0 14 5 26 10 26 6
0 10 14 10 30 0 17 5 30 10 30 6 0 10 45 10 115 l0 115 105 105 c58 58 112
105 120 105 8 0 15 5 15 10 0 6 9 10 20 10 11 0 20 5 20 10 0 6 18 10 40 10
22 0 40 5 40 10 0 6 18 10 40 10 22 0 40 5 40 10 0 6 33 10 80 10 47 0 80 4
80 10 0 6 23 10 50 10 l50 0 0 60 c0 33 4 60 10 60 6 0 10 83 10 230 0 147 4
230 10 230 6 0 10 25 10 56 0 62 -14 84 -54 84 -14 0 -26 5 -26 10 0 6 -39 10
-97 9 -90 0 -100 -2 -120 -24z"/>
</g>
</svg>
