<?xml version="1.0" standalone="no"?>
<!DOCTYPE svg PUBLIC "-//W3C//DTD SVG 20010904//EN"
 "http://www.w3.org/TR/2001/REC-SVG-20010904/DTD/svg10.dtd">
<svg version="1.0" xmlns="http://www.w3.org/2000/svg"
 width="312.000000pt" height="220.000000pt" viewBox="0 0 312.000000 220.000000"
 preserveAspectRatio="xMidYMid meet">
<metadata>
Created by potrace 1.16, written by Peter Selinger 2001-2019
</metadata>
<g transform="translate(0.000000,220.000000) scale(0.100000,-0.100000)"
fill="#000000" stroke="none">
<path d="M476 1927 c-148 -149 -271 -266 -274 -259 -2 8 -27 12 -68 12 -60 0
-67 -2 -99 -35 -32 -31 -35 -40 -35 -90 0 -30 5 -55 10 -55 6 0 10 -22 10 -50
0 -27 5 -50 10 -50 6 0 10 -18 10 -40 0 -22 5 -40 10 -40 6 0 10 -13 10 -30 0
-16 5 -30 10 -30 6 0 10 -9 10 -20 0 -18 7 -20 65 -20 62 0 68 -2 100 -35 19
-19 35 -41 35 -50 0 -12 13 -15 60 -15 58 0 60 1 60 25 0 14 11 37 25 51 22
22 37 26 113 31 l88 6 28 -34 c16 -19 40 -42 55 -51 25 -17 81 -24 93 -12 3 3
-6 32 -20 65 -14 32 -23 62 -20 65 9 8 177 24 194 17 8 -3 14 -14 14 -24 0
-17 -8 -19 -69 -19 -78 0 -101 -14 -76 -46 14 -18 14 -18 15 4 0 21 3 22 100
22 l100 0 0 30 c0 44 23 38 80 -20 l49 -50 113 0 c102 0 115 2 128 20 8 11 20
20 27 20 19 0 123 -106 123 -125 0 -8 7 -15 15 -15 8 0 15 5 15 10 0 6 6 10
14 10 8 0 28 11 44 25 28 24 36 25 151 25 67 0 121 -4 121 -9 0 -5 -17 -31
-38 -58 -84 -105 -91 -122 -82 -186 7 -46 16 -67 49 -106 22 -26 38 -51 34
-55 -15 -15 -39 -3 -84 41 l-49 47 0 82 c0 80 1 83 40 135 56 75 54 83 -18 76
-79 -8 -86 -12 -116 -58 -26 -38 -26 -39 -5 -39 11 0 38 18 59 40 36 38 70 52
70 30 0 -5 -4 -10 -10 -10 -5 0 -10 -9 -10 -20 0 -11 -4 -20 -10 -20 -6 0 -10
-48 -10 -125 l0 -126 119 -118 c85 -85 121 -127 124 -147 4 -28 4 -28 6 4 1
41 -20 84 -53 106 -33 21 -33 44 -1 52 19 5 35 -3 74 -37 47 -41 50 -47 51
-92 0 -53 -10 -79 -48 -119 l-26 -28 25 -27 c13 -15 48 -50 77 -77 l52 -49 0
-119 0 -118 40 0 c22 0 40 -4 40 -10 0 -5 23 -10 50 -10 38 0 50 4 50 15 0 26
107 125 135 125 21 0 25 5 25 30 0 17 5 30 10 30 6 0 10 9 10 20 0 11 5 20 10
20 6 0 10 7 10 16 0 8 7 22 15 30 13 14 19 11 54 -25 22 -23 45 -41 51 -41 27
0 40 30 40 92 0 52 4 66 20 78 11 8 20 26 20 40 0 14 9 32 20 40 11 8 20 25
20 38 0 26 41 72 65 72 8 0 15 5 15 10 0 6 14 10 30 10 17 0 30 5 30 10 0 6
14 10 30 10 17 0 30 5 30 10 0 6 23 10 50 10 47 0 50 2 50 26 0 14 -12 46 -26
70 l-27 45 18 67 c9 37 21 87 26 112 15 71 19 80 41 80 17 0 19 -5 15 -27 -14
-68 -26 -111 -41 -145 -9 -21 -15 -48 -15 -60 1 -17 2 -18 6 -5 2 9 9 17 14
17 5 0 9 9 9 20 0 11 5 20 10 20 6 0 10 18 10 40 0 22 5 40 10 40 6 0 10 30
10 70 0 40 -4 70 -10 70 -5 0 -10 14 -10 30 0 25 -4 30 -25 30 -33 0 -75 42
-75 74 0 13 -6 26 -12 29 -8 2 4 20 30 45 23 22 42 48 42 56 0 9 5 16 10 16 6
0 10 18 10 40 0 36 -2 40 -25 40 -42 0 -75 41 -75 95 l0 45 -50 0 c-27 0 -50
-4 -50 -10 0 -5 -9 -10 -20 -10 -11 0 -20 -4 -20 -10 0 -5 -12 -10 -26 -10
-17 0 -39 14 -64 40 -31 32 -46 40 -74 40 l-36 0 0 86 c0 104 -7 114 -84 114
-31 0 -56 5 -56 10 0 6 -18 10 -40 10 -22 0 -40 5 -40 10 0 6 -22 10 -50 10
l-50 0 0 80 0 80 -38 0 c-26 0 -42 -6 -52 -20 -10 -14 -26 -20 -51 -20 -21 0
-39 -6 -42 -12 -2 -8 -20 4 -45 30 -33 34 -47 42 -76 42 -20 0 -36 -4 -36 -10
0 -5 -13 -10 -30 -10 -16 0 -30 -4 -30 -10 0 -18 -35 -11 -50 10 -11 16 -26
20 -68 20 -47 0 -58 -4 -82 -30 -15 -16 -35 -30 -44 -30 -9 0 -16 -4 -16 -10
0 -5 -16 -10 -36 -10 -28 0 -43 8 -74 40 -22 23 -48 40 -60 40 -12 0 -35 14
-50 30 -15 17 -35 30 -44 30 -9 0 -16 5 -16 10 0 6 -25 10 -55 10 -46 0 -60
-4 -80 -25 -14 -13 -25 -31 -25 -40 0 -8 -4 -15 -10 -15 -5 0 -10 -7 -10 -16
0 -8 -7 -22 -15 -31 -14 -14 -18 -13 -34 6 -10 12 -26 21 -35 21 -9 0 -16 5
-16 10 0 6 -7 10 -16 10 -9 0 -29 14 -44 30 -15 17 -34 30 -42 30 -7 0 -20 9
-28 20 -8 11 -22 20 -32 20 -10 0 -18 5 -18 10 0 6 -8 10 -18 10 -10 0 -24 9
-32 20 -12 16 -25 20 -70 19 l-55 -1 -269 -271z"/>
<path d="M1580 1040 c0 -14 7 -20 22 -20 20 0 21 1 3 20 -10 11 -20 20 -22 20
-1 0 -3 -9 -3 -20z"/>
<path d="M2007 595 c3 -8 9 -12 14 -9 12 7 11 11 -5 17 -10 4 -13 1 -9 -8z"/>
</g>
</svg>
