<?xml version="1.0" standalone="no"?>
<!DOCTYPE svg PUBLIC "-//W3C//DTD SVG 20010904//EN"
 "http://www.w3.org/TR/2001/REC-SVG-20010904/DTD/svg10.dtd">
<svg version="1.0" xmlns="http://www.w3.org/2000/svg"
 width="248.000000pt" height="199.000000pt" viewBox="0 0 248.000000 199.000000"
 preserveAspectRatio="xMidYMid meet">
<metadata>
Created by potrace 1.16, written by Peter Selinger 2001-2019
</metadata>
<g transform="translate(0.000000,199.000000) scale(0.100000,-0.100000)"
fill="#000000" stroke="none">
<path d="M1880 1975 c0 -12 -17 -15 -90 -15 -53 0 -90 -4 -90 -10 0 -5 -12
-10 -26 -10 -26 0 -54 -20 -54 -40 0 -16 -47 -60 -65 -60 -12 0 -15 -13 -15
-60 0 -33 -4 -60 -10 -60 -5 0 -10 -13 -10 -30 0 -16 -4 -30 -10 -30 -5 0 -10
-8 -10 -18 0 -10 -9 -24 -20 -32 -11 -8 -20 -26 -20 -40 0 -14 -9 -32 -20 -40
-11 -8 -20 -20 -20 -28 0 -7 -11 -24 -25 -37 l-24 -25 -461 0 c-486 0 -490 0
-490 -44 0 -9 -4 -16 -10 -16 -5 0 -10 -13 -10 -28 0 -16 -8 -34 -20 -42 -11
-8 -20 -20 -20 -27 0 -16 -85 -103 -101 -103 -6 0 -24 -13 -39 -30 -17 -18
-38 -30 -54 -30 -14 0 -26 -4 -26 -10 0 -5 -11 -10 -25 -10 -16 0 -39 -13 -60
-35 -34 -33 -35 -37 -35 -110 l0 -75 60 0 c33 0 60 -3 60 -6 0 -3 -22 -27 -50
-54 -27 -27 -50 -55 -50 -62 0 -8 -9 -20 -20 -28 -15 -11 -20 -26 -20 -62 0
-26 5 -48 10 -48 6 0 10 -9 10 -20 0 -11 5 -20 10 -20 6 0 10 -9 10 -20 0 -11
5 -20 10 -20 6 0 10 -9 10 -20 0 -11 5 -20 10 -20 6 0 10 -9 10 -20 0 -12 7
-20 16 -20 17 0 17 -6 -4 -95 -5 -22 -17 -57 -26 -77 -23 -53 -21 -60 26 -124
31 -41 63 -68 118 -100 41 -24 82 -44 91 -44 12 0 22 17 34 55 10 30 23 60 30
65 7 6 41 10 76 8 63 -3 63 -3 90 -48 16 -25 34 -56 41 -70 12 -23 19 -25 101
-28 l87 -3 0 54 c0 57 0 57 93 190 39 56 40 58 35 125 -3 37 -4 73 -1 80 7 17
36 15 64 -6 43 -32 157 -84 169 -77 6 4 35 11 63 15 90 15 234 48 253 58 25
13 86 18 102 8 26 -16 13 -44 -25 -54 l-38 -10 38 -1 c44 -1 67 17 67 53 0 23
4 26 36 26 27 0 43 -7 64 -30 15 -16 35 -30 44 -30 9 0 16 -4 16 -10 0 -5 18
-10 40 -10 l40 0 0 58 c0 46 -4 60 -20 72 -11 8 -20 22 -20 32 0 16 10 18 76
18 87 0 104 10 104 64 0 20 5 36 10 36 6 0 10 9 10 20 0 11 5 20 10 20 6 0 10
7 10 15 0 9 11 27 25 40 18 19 35 25 70 25 25 0 45 5 45 10 0 6 29 10 66 10
60 0 68 -3 94 -30 49 -52 140 -38 140 22 0 13 9 30 20 38 16 11 20 26 20 68 0
47 -4 58 -30 82 -23 21 -30 37 -30 64 0 26 -4 36 -15 36 -9 0 -31 16 -50 35
-27 26 -35 43 -35 70 0 19 5 35 10 35 6 0 10 39 10 96 l0 95 -60 59 c-42 42
-60 66 -60 84 0 15 -4 26 -10 26 -6 0 -10 33 -10 78 0 66 -3 80 -20 92 -11 8
-20 20 -20 27 0 7 -38 51 -85 98 -74 74 -89 85 -120 85 -24 0 -35 5 -35 15 0
8 -9 15 -20 15 -11 0 -20 -7 -20 -15z"/>
<path d="M930 336 c0 -59 -8 -78 -70 -161 -28 -38 -47 -71 -41 -73 13 -4 81
63 81 80 0 8 9 20 20 28 15 11 20 26 20 58 0 24 6 50 14 58 17 16 46 19 46 4
0 -5 9 -10 20 -10 11 0 20 -4 20 -10 0 -6 30 -10 70 -10 40 0 70 4 70 10 0 6
27 10 60 10 33 0 60 4 60 10 0 6 14 10 30 10 17 0 30 5 30 10 0 6 18 10 40 10
22 0 40 5 40 10 0 13 2 13 -104 -10 -50 -11 -124 -27 -164 -36 l-72 -16 -73
36 c-40 20 -78 36 -85 36 -8 0 -12 -16 -12 -44z"/>
<path d="M386 70 c-20 -49 -20 -50 -1 -50 8 0 15 7 15 16 0 32 53 60 62 33 2
-6 13 -10 23 -8 19 4 19 5 -3 27 -12 12 -34 22 -51 22 -24 0 -31 -6 -45 -40z"/>
</g>
</svg>
