<?xml version="1.0" standalone="no"?>
<!DOCTYPE svg PUBLIC "-//W3C//DTD SVG 20010904//EN"
 "http://www.w3.org/TR/2001/REC-SVG-20010904/DTD/svg10.dtd">
<svg version="1.0" xmlns="http://www.w3.org/2000/svg"
 width="208.000000pt" height="180.000000pt" viewBox="0 0 208.000000 180.000000"
 preserveAspectRatio="xMidYMid meet">
<metadata>
Created by potrace 1.16, written by Peter Selinger 2001-2019
</metadata>
<g transform="translate(0.000000,180.000000) scale(0.100000,-0.100000)"
fill="#000000" stroke="none">
<path d="M1623 1775 c-13 -13 -23 -31 -23 -40 0 -8 -4 -15 -10 -15 -6 0 -10
-33 -10 -80 0 -47 -4 -80 -10 -80 -5 0 -10 -9 -10 -20 0 -11 -4 -20 -10 -20
-5 0 -10 -7 -10 -15 0 -9 -16 -31 -35 -50 -33 -34 -37 -35 -110 -35 -43 0 -75
-4 -75 -10 0 -5 -13 -10 -30 -10 -16 0 -30 -4 -30 -10 0 -6 -32 -10 -76 -10
-75 0 -76 0 -114 -40 -38 -40 -39 -40 -114 -40 l-76 0 0 -40 c0 -39 -1 -40
-36 -40 -27 0 -43 -7 -64 -30 -27 -29 -60 -40 -60 -20 0 6 -29 10 -66 10 l-65
0 -59 -60 -59 -60 -91 0 c-83 0 -93 -2 -115 -25 -24 -23 -25 -29 -25 -160 0
-83 -4 -135 -10 -135 -6 0 -10 -33 -10 -78 0 -66 3 -80 20 -92 12 -8 20 -26
20 -42 0 -15 5 -28 10 -28 6 0 10 -4 10 -10 0 -5 -22 -10 -50 -10 -27 0 -50
-4 -50 -10 0 -5 -18 -10 -40 -10 -22 0 -40 -4 -40 -10 0 -5 -13 -10 -30 -10
-16 0 -30 -4 -30 -10 0 -5 -9 -10 -20 -10 -19 0 -20 -7 -20 -90 0 -53 4 -90
10 -90 6 0 10 -18 10 -40 0 -22 5 -40 10 -40 6 0 10 -9 10 -20 0 -19 7 -20
196 -20 l196 0 28 -30 c27 -29 30 -30 124 -30 57 0 96 4 96 10 0 6 12 10 26
10 17 0 39 -14 64 -40 38 -40 39 -40 114 -40 44 0 76 4 76 10 0 6 9 10 20 10
11 0 20 5 20 10 0 6 14 10 30 10 17 0 30 5 30 10 0 6 7 10 15 10 18 0 65 44
65 61 0 6 14 24 30 39 17 15 30 33 30 39 0 14 146 161 160 161 16 0 60 47 60
65 0 8 5 15 10 15 6 0 10 9 10 20 0 11 5 20 10 20 6 0 10 14 10 30 0 17 5 30
10 30 6 0 10 13 10 28 0 16 8 34 20 42 11 8 20 25 20 38 0 33 23 52 62 52 22
0 39 -7 48 -20 8 -11 22 -20 32 -20 10 0 18 -4 18 -10 0 -6 37 -10 90 -10 53
0 90 4 90 10 0 6 9 10 20 10 11 0 20 5 20 10 0 6 27 10 60 10 33 0 60 4 60 10
0 6 14 10 30 10 28 0 30 3 30 36 0 35 -18 64 -40 64 -16 0 -100 87 -100 105 0
8 5 15 10 15 6 0 10 9 10 20 0 11 5 20 10 20 6 0 10 9 10 20 0 11 5 20 10 20
6 0 10 9 10 20 0 11 5 20 10 20 6 0 10 14 10 30 0 17 5 30 10 30 6 0 10 35 10
86 0 83 -1 87 -30 114 -18 17 -30 38 -30 54 0 14 -4 26 -10 26 -6 0 -10 27
-10 60 0 33 -4 60 -10 60 -5 0 -10 9 -10 20 0 11 5 20 10 20 6 0 10 37 10 90
0 53 -4 90 -10 90 -5 0 -10 12 -10 26 0 48 -17 54 -162 53 -127 0 -134 -1
-155 -24z"/>
</g>
</svg>
