<?xml version="1.0" standalone="no"?>
<!DOCTYPE svg PUBLIC "-//W3C//DTD SVG 20010904//EN"
 "http://www.w3.org/TR/2001/REC-SVG-20010904/DTD/svg10.dtd">
<svg version="1.0" xmlns="http://www.w3.org/2000/svg"
 width="292.000000pt" height="296.000000pt" viewBox="0 0 292.000000 296.000000"
 preserveAspectRatio="xMidYMid meet">
<metadata>
Created by potrace 1.16, written by Peter Selinger 2001-2019
</metadata>
<g transform="translate(0.000000,296.000000) scale(0.100000,-0.100000)"
fill="#000000" stroke="none">
<path d="M1279 2931 c41 -57 195 -151 215 -131 5 5 17 35 27 65 16 53 16 55
-2 55 -14 0 -19 -7 -19 -26 0 -14 -6 -32 -14 -40 -17 -16 -46 -19 -46 -4 0 6
-12 10 -26 10 -17 0 -41 16 -74 50 -55 57 -96 71 -61 21z"/>
<path d="M1200 2889 c-21 -24 -33 -28 -72 -29 -37 0 -48 -4 -48 -16 0 -12 6
-15 23 -9 12 4 40 10 62 15 72 14 87 26 67 57 -5 7 -15 2 -32 -18z"/>
<path d="M1561 2847 c-10 -23 -22 -58 -26 -76 -4 -18 -14 -35 -22 -38 -17 -7
-83 25 -150 71 -42 28 -43 29 -105 16 -35 -6 -83 -19 -106 -27 -38 -13 -46
-13 -60 0 -35 30 -132 -12 -132 -58 0 -8 -4 -15 -10 -15 -5 0 -10 -9 -10 -20
0 -11 -4 -20 -10 -20 -5 0 -10 -9 -10 -20 0 -11 -4 -20 -10 -20 -6 0 -10 -53
-10 -140 0 -77 -3 -140 -6 -140 -3 0 -23 18 -44 40 -36 37 -42 40 -94 40 -49
0 -56 -2 -56 -20 0 -11 -4 -20 -10 -20 -5 0 -10 -7 -10 -15 0 -23 -46 -65 -70
-65 -21 0 -110 -81 -110 -100 0 -18 -53 -66 -58 -52 -2 7 -17 12 -33 12 -16 0
-29 5 -29 10 0 6 -35 10 -85 10 -78 0 -88 -2 -110 -25 -14 -13 -25 -31 -25
-40 0 -8 -4 -15 -10 -15 -5 0 -10 -22 -10 -48 0 -36 -5 -51 -20 -62 -16 -12
-20 -26 -20 -72 0 -32 4 -58 10 -58 6 0 10 -9 10 -20 0 -11 5 -20 10 -20 18 0
10 -31 -15 -55 -18 -19 -35 -25 -70 -25 l-45 0 0 -86 0 -86 40 -38 c34 -33 40
-45 40 -80 0 -35 6 -47 40 -80 26 -25 40 -47 40 -64 0 -14 5 -26 10 -26 6 0
10 -18 10 -40 l0 -40 50 0 c28 0 50 -4 50 -10 0 -5 9 -10 20 -10 11 0 20 -4
20 -10 0 -6 53 -10 140 -10 133 0 140 -1 140 -20 0 -11 5 -20 10 -20 6 0 10
-9 10 -20 0 -17 7 -20 50 -20 28 0 50 5 50 10 0 15 29 12 46 -4 10 -10 14 -39
14 -96 0 -94 10 -110 64 -110 20 0 36 -4 36 -10 0 -6 27 -10 60 -10 33 0 60
-4 60 -10 0 -5 9 -10 20 -10 11 0 20 -4 20 -10 0 -5 21 -10 46 -10 41 0 50 4
94 50 l49 50 171 0 171 0 34 -35 c19 -19 35 -41 35 -50 0 -8 9 -15 20 -15 19
0 19 1 1 41 -34 75 -28 73 -252 77 l-201 4 -47 -51 c-52 -56 -57 -57 -122 -37
-24 7 -69 19 -99 26 -30 7 -76 19 -102 27 l-48 14 0 92 c0 54 -5 98 -11 104
-12 12 4 53 21 53 6 0 13 1 18 3 4 1 9 -47 12 -108 l5 -110 40 -12 c90 -26
142 -37 185 -37 39 -1 46 3 68 34 l23 35 241 5 c132 3 243 3 247 0 4 -3 25
-40 47 -82 53 -105 57 -109 109 -123 l47 -11 -2 -190 c-1 -179 0 -190 20 -204
11 -8 20 -20 20 -28 0 -7 16 -28 35 -47 32 -33 38 -35 100 -35 37 0 65 -4 65
-10 0 -5 13 -10 28 -10 16 0 34 -8 42 -20 8 -11 21 -20 30 -20 9 0 22 -9 30
-20 8 -11 26 -20 40 -20 14 0 32 -9 40 -20 8 -11 20 -20 28 -20 28 0 42 -28
42 -84 l0 -56 80 0 c47 0 80 4 80 10 0 6 45 10 115 10 110 0 117 1 140 25 25
24 33 55 15 55 -5 0 -10 9 -10 20 0 11 -4 20 -10 20 -5 0 -10 9 -10 20 0 11 5
20 10 20 6 0 10 14 10 30 0 17 5 30 10 30 6 0 10 33 10 80 0 47 -4 80 -10 80
-6 0 -10 32 -10 75 0 67 3 79 25 100 13 14 31 25 40 25 10 0 15 9 15 26 0 16
12 37 30 54 24 22 30 36 30 70 0 37 -6 47 -60 100 -51 50 -60 64 -60 94 0 20
-4 36 -10 36 -5 0 -10 14 -10 30 0 17 -4 30 -10 30 -5 0 -10 23 -10 50 0 38
-4 50 -15 50 -9 0 -27 11 -40 25 -23 22 -25 32 -25 110 0 75 -2 85 -18 85 -10
0 -24 9 -32 20 -8 11 -22 20 -32 20 -10 0 -18 5 -18 10 0 6 -9 10 -20 10 -11
0 -20 5 -20 10 0 6 -8 10 -18 10 -10 0 -24 9 -32 20 -8 12 -26 20 -42 20 -15
0 -28 5 -28 10 0 6 -9 10 -20 10 -11 0 -20 5 -20 10 0 6 -9 10 -20 10 -17 0
-20 7 -20 46 0 55 16 74 64 74 35 0 36 1 36 40 0 22 -4 40 -10 40 -5 0 -10 8
-10 18 0 10 -9 24 -20 32 -11 8 -20 21 -20 30 0 9 -9 22 -20 30 -16 12 -20 26
-20 72 l0 58 -66 0 c-72 0 -94 12 -94 52 0 13 -9 30 -20 38 -15 11 -20 26 -20
62 0 26 -4 48 -10 48 -5 0 -10 8 -10 18 0 10 -9 24 -20 32 -24 17 -80 129 -86
174 -4 24 3 44 35 93 23 34 41 71 41 82 0 25 -89 142 -121 158 -14 7 -63 13
-115 13 -106 0 -118 7 -158 84 -36 69 -44 76 -83 76 -30 0 -36 -4 -52 -43z"/>
</g>
</svg>
