<?xml version="1.0" standalone="no"?>
<!DOCTYPE svg PUBLIC "-//W3C//DTD SVG 20010904//EN"
 "http://www.w3.org/TR/2001/REC-SVG-20010904/DTD/svg10.dtd">
<svg version="1.0" xmlns="http://www.w3.org/2000/svg"
 width="438.000000pt" height="244.000000pt" viewBox="0 0 438.000000 244.000000"
 preserveAspectRatio="xMidYMid meet">
<metadata>
Created by potrace 1.16, written by Peter Selinger 2001-2019
</metadata>
<g transform="translate(0.000000,244.000000) scale(0.100000,-0.100000)"
fill="#000000" stroke="none">
<path d="M413 2425 c-7 -8 -13 -21 -13 -30 0 -8 -4 -15 -10 -15 -5 0 -10 -13
-10 -30 0 -16 -4 -30 -10 -30 -5 0 -10 -25 -10 -56 0 -50 3 -59 31 -85 l32
-29 -22 -19 c-11 -10 -21 -25 -21 -32 0 -8 -9 -21 -20 -29 -18 -13 -20 -26
-20 -132 l0 -118 -60 0 c-33 0 -60 -4 -60 -10 0 -6 -27 -10 -60 -10 l-60 0 0
-46 c0 -40 -5 -50 -40 -84 -22 -21 -40 -46 -40 -54 0 -9 -4 -16 -10 -16 -6 0
-10 -50 -10 -130 0 -80 4 -130 10 -130 6 0 10 -8 10 -18 0 -10 9 -24 20 -32
17 -12 20 -26 20 -92 0 -63 3 -78 15 -78 18 0 105 -84 105 -101 0 -6 -13 -24
-30 -39 -26 -25 -30 -35 -30 -84 0 -49 2 -56 20 -56 13 0 20 -7 20 -20 0 -13
-7 -20 -20 -20 -17 0 -20 -7 -20 -50 0 -27 5 -50 10 -50 6 0 10 -7 10 -16 0
-8 22 -37 50 -64 28 -27 50 -54 50 -60 0 -7 15 -26 32 -43 21 -19 28 -32 21
-34 -8 -3 -13 -23 -13 -54 0 -27 -4 -49 -10 -49 -6 0 -10 -33 -10 -80 0 -47 4
-80 10 -80 6 0 10 -13 10 -30 0 -16 5 -30 10 -30 6 0 10 -9 10 -20 0 -11 5
-20 10 -20 6 0 10 -13 10 -30 0 -16 5 -30 10 -30 6 0 10 -7 10 -16 0 -27 27
-44 70 -44 34 0 48 6 70 30 27 29 80 42 80 20 0 -5 14 -10 30 -10 17 0 30 -4
30 -10 0 -5 22 -10 48 -10 36 0 51 5 62 20 8 11 22 20 32 20 10 0 18 5 18 10
0 6 26 10 58 10 46 0 60 4 72 20 8 11 22 20 32 20 10 0 18 5 18 10 0 6 14 10
30 10 17 0 30 -4 30 -10 0 -6 30 -10 70 -10 40 0 70 4 70 10 0 6 8 10 18 10
10 0 24 9 32 20 15 21 50 28 50 10 0 -5 18 -10 40 -10 l40 0 0 40 c0 22 5 40
10 40 6 0 10 20 10 45 0 35 6 52 25 70 13 14 31 25 40 25 8 0 15 5 15 10 0 6
14 10 30 10 17 0 30 5 30 10 0 6 7 10 15 10 9 0 47 32 85 70 63 64 100 86 100
60 0 -6 43 -10 110 -10 67 0 110 4 110 10 0 6 23 10 50 10 28 0 50 -4 50 -10
0 -6 28 -10 65 -10 64 0 66 1 110 45 30 29 45 53 45 70 0 32 6 32 40 -5 15
-16 34 -30 42 -30 7 0 20 -9 28 -20 12 -16 26 -20 71 -20 36 0 60 5 63 13 5 9
7 9 12 0 3 -7 14 -13 25 -13 10 0 19 -4 19 -10 0 -6 33 -10 78 -10 66 0 80 3
92 20 8 11 22 20 32 20 10 0 18 5 18 10 0 20 33 9 60 -20 l28 -30 126 0 c77 0
126 4 126 10 0 6 9 10 20 10 11 0 20 5 20 10 0 6 11 10 25 10 27 0 75 -40 75
-62 0 -8 9 -20 20 -28 17 -12 20 -26 20 -88 0 -50 4 -78 14 -88 18 -17 30 -19
20 -2 -4 6 -11 51 -15 99 -7 84 -9 90 -50 143 -24 31 -47 56 -51 56 -4 0 -36
-11 -72 -24 -46 -18 -88 -25 -152 -27 l-89 -3 -37 37 c-45 46 -71 47 -133 3
-66 -47 -109 -53 -174 -25 -46 19 -57 21 -93 10 -37 -11 -42 -11 -64 10 -40
37 -17 44 140 44 119 0 147 3 162 16 28 24 88 41 119 33 15 -4 48 -22 73 -42
45 -34 46 -34 119 -28 49 5 89 15 120 31 70 38 81 34 157 -50 38 -43 75 -75
86 -75 10 0 22 -4 25 -10 3 -6 2 -10 -4 -10 -5 0 -16 -7 -25 -15 -19 -19 -11
-138 12 -173 20 -31 63 -52 107 -52 49 0 65 19 65 74 l0 46 106 0 c106 0 106
0 135 31 l29 32 19 -22 c15 -17 30 -21 75 -21 31 0 56 5 56 10 0 22 34 8 70
-30 33 -34 45 -40 80 -40 37 0 47 6 100 60 42 42 66 60 84 60 21 0 26 5 26 26
0 29 21 54 44 54 13 0 16 12 16 60 l0 60 -80 0 -80 0 0 70 c0 60 -2 70 -18 70
-10 0 -24 9 -32 20 -8 11 -26 20 -40 20 -14 0 -32 9 -40 20 -8 11 -22 20 -32
20 -10 0 -18 5 -18 10 0 6 -9 10 -20 10 -11 0 -20 5 -20 10 0 6 -32 10 -76 10
-74 0 -104 11 -104 40 0 6 -27 38 -60 70 l-60 59 0 175 0 176 -36 0 c-38 0
-64 18 -64 44 0 9 -4 16 -10 16 -5 0 -10 9 -10 20 0 11 -4 20 -10 20 -5 0 -10
9 -10 20 0 11 -4 20 -10 20 -5 0 -10 7 -10 16 0 41 -18 44 -260 44 l-232 0
-38 -40 c-36 -38 -70 -52 -70 -30 0 6 -27 10 -60 10 -33 0 -60 4 -60 10 0 6
-18 10 -40 10 -22 0 -40 5 -40 10 0 6 -7 10 -16 10 -33 0 -44 26 -44 110 0 57
-4 86 -14 96 -17 16 -106 20 -106 4 0 -5 -9 -10 -20 -10 -14 0 -20 7 -21 23
l0 22 -16 -22 c-14 -21 -23 -23 -104 -23 -86 0 -125 6 -239 37 -30 8 -71 18
-90 22 -34 6 -35 8 -46 67 -13 72 -17 80 -54 99 -24 13 -29 22 -35 74 -4 33
-13 65 -21 72 -21 17 -17 36 8 42 32 9 45 -7 51 -66 5 -42 12 -57 37 -78 17
-14 35 -41 40 -60 5 -19 14 -53 19 -75 11 -40 13 -42 57 -49 25 -3 64 -13 86
-21 29 -10 79 -13 177 -12 l136 2 -133 3 c-76 2 -132 8 -132 13 0 6 -9 10 -20
10 -11 0 -20 5 -20 10 0 6 -20 10 -45 10 -59 0 -95 32 -95 85 0 19 -4 35 -10
35 -5 0 -10 12 -10 26 0 17 -14 39 -40 64 -35 34 -40 44 -40 84 l0 46 -80 0
c-47 0 -80 4 -80 10 0 6 -30 10 -70 10 -40 0 -70 -4 -70 -10 0 -5 -13 -10 -30
-10 -16 0 -30 -4 -30 -10 0 -6 -27 -10 -60 -10 -33 0 -60 4 -60 10 0 6 -13 10
-30 10 -16 0 -30 5 -30 10 0 6 -7 10 -16 10 -8 0 -42 27 -74 60 l-59 60 -65 0
c-37 0 -66 -4 -66 -10 0 -6 -29 -10 -68 -10 -56 0 -70 -3 -82 -20 -8 -11 -26
-20 -40 -20 -14 0 -32 -9 -40 -20 -10 -14 -26 -20 -52 -20 -21 0 -38 -4 -38
-10 0 -5 -9 -10 -19 -10 -11 0 -21 -5 -23 -12 -6 -16 -58 35 -58 57 0 8 -4 15
-10 15 -5 0 -10 7 -10 15 0 9 -11 27 -25 40 -32 33 -99 35 -126 3 l-19 -21
-19 21 c-22 26 -98 30 -118 7z"/>
</g>
</svg>
