<?xml version="1.0" standalone="no"?>
<!DOCTYPE svg PUBLIC "-//W3C//DTD SVG 20010904//EN"
 "http://www.w3.org/TR/2001/REC-SVG-20010904/DTD/svg10.dtd">
<svg version="1.0" xmlns="http://www.w3.org/2000/svg"
 width="240.000000pt" height="166.000000pt" viewBox="0 0 240.000000 166.000000"
 preserveAspectRatio="xMidYMid meet">
<metadata>
Created by potrace 1.16, written by Peter Selinger 2001-2019
</metadata>
<g transform="translate(0.000000,166.000000) scale(0.100000,-0.100000)"
fill="#000000" stroke="none">
<path d="M1660 1642 c0 -10 -9 -24 -20 -32 -11 -8 -20 -25 -20 -38 0 -13 -7
-30 -15 -38 -13 -14 -20 -10 -64 35 -48 49 -52 51 -105 51 -31 0 -56 -4 -56
-10 0 -6 -32 -10 -76 -10 -83 0 -104 -11 -104 -54 0 -14 -4 -26 -10 -26 -5 0
-10 -9 -10 -20 0 -11 -4 -20 -10 -20 -5 0 -10 -9 -10 -20 0 -11 -4 -20 -10
-20 -5 0 -10 -7 -10 -16 0 -26 -26 -44 -64 -44 l-36 0 0 -66 c0 -86 -9 -93
-115 -94 -69 0 -83 3 -95 20 -10 14 -26 20 -52 20 -21 0 -38 -4 -38 -10 0 -6
-33 -10 -80 -10 -47 0 -80 -4 -80 -10 0 -5 -18 -10 -40 -10 -22 0 -40 -4 -40
-10 0 -5 -13 -10 -30 -10 -16 0 -30 -4 -30 -10 0 -6 -26 -10 -59 -10 -38 0
-61 -5 -65 -12 -5 -10 -7 -10 -12 0 -3 6 -14 12 -25 12 -10 0 -19 5 -19 10 0
6 -9 10 -20 10 -11 0 -20 5 -20 10 0 6 -22 10 -50 10 l-50 0 0 -48 c0 -36 -5
-51 -20 -62 -11 -8 -20 -21 -20 -30 0 -9 -9 -22 -20 -30 -11 -8 -20 -21 -20
-30 0 -9 -9 -22 -20 -30 -17 -13 -20 -26 -20 -102 0 -52 4 -88 10 -88 6 0 10
-7 10 -15 0 -9 33 -48 72 -87 41 -40 67 -73 60 -76 -6 -2 -12 -16 -12 -31 0
-15 -9 -33 -20 -41 -18 -13 -20 -26 -20 -112 0 -59 4 -98 10 -98 6 0 10 -9 10
-20 0 -11 5 -20 10 -20 6 0 10 -22 10 -50 0 -27 5 -50 10 -50 6 0 10 -7 10
-16 0 -9 14 -29 30 -44 18 -17 30 -38 30 -54 0 -25 3 -26 50 -26 28 0 50 5 50
10 0 6 23 10 50 10 28 0 50 -4 50 -10 0 -5 8 -10 18 -10 10 0 24 -9 32 -20 8
-11 22 -20 32 -20 10 0 18 -4 18 -10 0 -5 21 -10 46 -10 39 0 51 5 75 31 l29
32 19 -22 c25 -29 100 -30 121 -1 8 11 22 20 32 20 10 0 18 5 18 10 0 6 52 10
136 10 l136 0 28 30 c17 18 38 30 54 30 14 0 26 5 26 10 0 6 9 10 20 10 11 0
20 5 20 10 0 6 9 10 20 10 11 0 20 5 20 10 0 6 13 10 28 10 16 0 34 8 42 20
18 26 42 26 60 0 13 -18 26 -20 112 -20 59 0 98 4 98 10 0 6 27 10 60 10 l60
0 0 55 c0 50 3 59 35 90 19 19 41 35 50 35 8 0 15 5 15 10 0 6 9 10 20 10 11
0 20 5 20 10 0 6 23 10 50 10 28 0 50 -4 50 -10 0 -5 9 -10 20 -10 11 0 20 -4
20 -10 0 -16 109 -12 126 4 10 10 14 39 14 100 0 79 2 86 20 86 11 0 20 -4 20
-10 0 -5 9 -10 20 -10 11 0 20 -4 20 -10 0 -6 27 -10 60 -10 l60 0 0 40 c0 30
-4 40 -16 40 -9 0 -29 14 -44 30 -15 17 -33 30 -39 30 -7 0 -27 16 -46 35 -27
26 -35 43 -35 70 0 19 -4 35 -10 35 -6 0 -10 27 -10 60 0 48 -3 60 -16 60 -9
0 -29 14 -44 30 -21 23 -37 30 -64 30 -20 0 -36 -4 -36 -10 0 -15 -29 -12 -46
4 -9 10 -14 37 -14 80 0 37 -4 66 -10 66 -6 0 -10 40 -10 100 l0 100 -30 0
c-16 0 -30 5 -30 10 0 6 -20 10 -45 10 -35 0 -52 6 -70 25 -23 22 -25 31 -25
125 0 115 -7 130 -64 130 -28 0 -36 -4 -36 -18z"/>
</g>
</svg>
