<?xml version="1.0" standalone="no"?>
<!DOCTYPE svg PUBLIC "-//W3C//DTD SVG 20010904//EN"
 "http://www.w3.org/TR/2001/REC-SVG-20010904/DTD/svg10.dtd">
<svg version="1.0" xmlns="http://www.w3.org/2000/svg"
 width="254.000000pt" height="180.000000pt" viewBox="0 0 254.000000 180.000000"
 preserveAspectRatio="xMidYMid meet">
<metadata>
Created by potrace 1.16, written by Peter Selinger 2001-2019
</metadata>
<g transform="translate(0.000000,180.000000) scale(0.100000,-0.100000)"
fill="#000000" stroke="none">
<path d="M293 1785 c-7 -8 -13 -19 -13 -26 0 -6 -13 -24 -30 -39 -16 -15 -30
-35 -30 -44 0 -9 -4 -16 -10 -16 -5 0 -10 -18 -10 -40 l0 -40 -80 0 -80 0 0
-40 c0 -22 -4 -40 -10 -40 -5 0 -10 -22 -10 -50 0 -27 -4 -50 -10 -50 -5 0
-10 -22 -10 -48 0 -36 5 -51 20 -62 18 -13 20 -26 20 -120 0 -94 2 -107 20
-120 11 -8 20 -21 20 -28 0 -7 18 -31 40 -52 34 -33 40 -45 40 -80 0 -43 17
-70 44 -70 9 0 16 -4 16 -10 0 -5 18 -10 40 -10 22 0 40 -4 40 -10 0 -6 33
-10 80 -10 l80 0 0 -88 c0 -76 -3 -89 -20 -102 -28 -20 -28 -100 0 -120 11 -8
20 -20 20 -28 0 -7 23 -35 50 -62 42 -40 50 -55 50 -84 0 -20 5 -36 10 -36 6
0 10 -9 10 -20 0 -11 5 -20 10 -20 6 0 10 -18 10 -40 0 -22 5 -40 10 -40 6 0
10 -13 10 -30 0 -29 1 -30 50 -30 28 0 50 -4 50 -10 0 -6 33 -10 80 -10 47 0
80 -4 80 -10 0 -6 46 -10 118 -10 106 0 119 -2 132 -20 21 -29 96 -28 123 2
13 16 21 19 24 11 6 -16 163 -18 163 -3 0 6 9 10 19 10 11 0 22 6 25 13 5 9 7
9 12 0 7 -16 544 -19 544 -3 0 6 60 10 160 10 l160 0 0 46 c0 40 5 50 40 84
22 21 40 46 40 54 0 9 5 16 10 16 6 0 10 12 10 26 0 26 20 54 40 54 21 0 40
28 40 60 0 32 -19 60 -40 60 -22 0 -40 29 -40 64 0 20 -4 36 -10 36 -6 0 -10
45 -10 115 l0 116 -80 79 c-44 44 -80 86 -80 95 0 8 -4 15 -10 15 -5 0 -10 9
-10 20 0 11 -4 20 -10 20 -5 0 -10 12 -10 26 0 33 -21 54 -54 54 -14 0 -26 5
-26 10 0 6 -9 10 -20 10 -11 0 -20 5 -20 10 0 6 -11 10 -25 10 -26 0 -75 39
-75 60 0 16 -87 100 -105 100 -8 0 -15 5 -15 10 0 6 -27 10 -60 10 -33 0 -60
4 -60 10 0 6 -21 10 -46 10 -44 0 -74 -16 -74 -39 0 -6 -29 -41 -65 -76 -54
-55 -70 -65 -99 -65 -19 0 -36 -5 -38 -12 -7 -19 -58 37 -58 62 0 36 -24 50
-84 50 -31 0 -56 -4 -56 -10 0 -5 -13 -10 -30 -10 -16 0 -30 5 -30 10 0 6 -9
10 -20 10 -11 0 -20 5 -20 10 0 6 -9 10 -20 10 -11 0 -20 5 -20 10 0 6 -7 10
-15 10 -18 0 -65 44 -65 60 0 6 -11 22 -25 35 -22 23 -32 25 -110 25 -50 0
-85 4 -85 10 0 6 -8 10 -18 10 -10 0 -24 9 -32 20 -8 11 -21 20 -30 20 -9 0
-22 9 -30 20 -8 11 -21 20 -30 20 -9 0 -22 9 -30 20 -8 11 -25 20 -37 20 -24
0 -133 99 -133 121 0 6 -13 24 -30 39 -16 15 -30 33 -30 40 0 37 -100 57 -127
25z"/>
</g>
</svg>
