<?xml version="1.0" standalone="no"?>
<!DOCTYPE svg PUBLIC "-//W3C//DTD SVG 20010904//EN"
 "http://www.w3.org/TR/2001/REC-SVG-20010904/DTD/svg10.dtd">
<svg version="1.0" xmlns="http://www.w3.org/2000/svg"
 width="278.000000pt" height="207.000000pt" viewBox="0 0 278.000000 207.000000"
 preserveAspectRatio="xMidYMid meet">
<metadata>
Created by potrace 1.16, written by Peter Selinger 2001-2019
</metadata>
<g transform="translate(0.000000,207.000000) scale(0.100000,-0.100000)"
fill="#000000" stroke="none">
<path d="M1440 2056 c-19 -7 -53 -25 -75 -40 -21 -15 -48 -26 -60 -24 -27 3
-45 -9 -45 -30 0 -10 -12 -33 -27 -51 -24 -28 -37 -34 -88 -40 -33 -5 -73 -13
-88 -20 -46 -18 -76 -13 -108 18 -26 26 -40 31 -117 40 -48 5 -110 20 -138 32
-60 26 -94 21 -114 -16 -18 -33 -63 -33 -127 0 -48 26 -56 26 -146 4 -51 -13
-102 -61 -123 -115 -17 -44 -17 -46 6 -86 13 -23 38 -54 56 -70 32 -29 32 -29
18 -65 -16 -38 -16 -40 18 -57 12 -6 26 -24 31 -39 8 -26 5 -32 -29 -65 l-38
-35 24 -40 c26 -46 51 -142 43 -166 -3 -9 -24 -32 -45 -51 l-39 -35 9 -59 c8
-53 7 -62 -16 -105 -31 -58 -48 -71 -88 -71 -49 0 -64 -9 -64 -40 0 -15 -9
-39 -20 -53 -11 -14 -20 -36 -20 -49 0 -13 -4 -28 -9 -34 -5 -5 -11 -29 -12
-54 -2 -36 4 -55 29 -94 39 -60 39 -76 7 -114 -25 -30 -33 -62 -16 -62 5 0 27
-17 49 -37 22 -21 56 -53 76 -71 l37 -33 -7 -98 c-6 -92 -5 -98 13 -103 11 -3
28 1 38 8 27 20 49 17 107 -12 46 -23 56 -25 85 -15 18 7 37 9 43 6 16 -10
130 6 144 20 7 7 24 11 39 8 40 -8 95 5 118 28 11 11 19 33 19 54 0 32 3 34
38 40 20 3 61 17 90 30 l52 25 110 -15 c89 -13 122 -14 173 -4 34 6 149 13
255 14 106 2 222 7 256 10 49 5 70 3 95 -9 17 -9 31 -21 31 -26 0 -5 12 -13
26 -16 27 -7 54 -54 54 -93 0 -12 9 -21 26 -25 20 -5 31 -1 52 22 21 22 40 30
82 36 30 4 73 14 95 22 36 13 44 13 77 0 20 -9 39 -20 43 -26 10 -16 33 -11
40 9 9 28 55 44 89 31 40 -15 43 -13 61 24 22 46 81 86 118 79 22 -4 27 -2 27
13 0 11 14 50 30 88 22 52 28 79 24 110 -5 42 15 108 36 121 21 13 11 66 -19
94 -15 14 -32 38 -36 51 -4 14 -19 41 -34 60 -15 19 -33 45 -39 56 -6 12 -23
25 -37 28 -19 5 -25 13 -25 34 0 24 -6 30 -50 45 -37 13 -51 24 -56 42 -8 30
3 65 21 65 8 0 16 4 20 9 6 11 -12 58 -32 82 -11 14 -11 18 2 29 21 18 19 40
-4 40 -11 0 -35 -9 -54 -20 l-35 -21 -27 32 c-21 26 -25 39 -20 65 4 22 0 44
-11 65 -14 28 -15 40 -4 83 11 47 10 56 -13 105 l-24 54 -55 1 c-45 1 -61 6
-92 31 -21 17 -44 34 -52 40 -10 7 -22 1 -47 -23 -32 -31 -70 -42 -82 -22 -3
6 -21 10 -38 10 -50 0 -61 13 -63 70 -1 28 -7 57 -14 65 -9 11 -8 20 5 43 17
27 16 31 -3 75 l-20 46 21 3 c12 2 21 11 22 23 2 11 6 27 9 36 5 12 -3 23 -28
39 -20 12 -40 28 -44 37 -8 13 -14 13 -58 -3 -65 -23 -207 -25 -249 -2 -25 13
-36 14 -65 4z"/>
</g>
</svg>
