<?xml version="1.0" standalone="no"?>
<!DOCTYPE svg PUBLIC "-//W3C//DTD SVG 20010904//EN"
 "http://www.w3.org/TR/2001/REC-SVG-20010904/DTD/svg10.dtd">
<svg version="1.0" xmlns="http://www.w3.org/2000/svg"
 width="193.000000pt" height="165.000000pt" viewBox="0 0 193.000000 165.000000"
 preserveAspectRatio="xMidYMid meet">
<metadata>
Created by potrace 1.16, written by Peter Selinger 2001-2019
</metadata>
<g transform="translate(0.000000,165.000000) scale(0.100000,-0.100000)"
fill="#000000" stroke="none">
<path d="M1211 1627 c-51 -21 -55 -25 -75 -82 l-21 -60 -60 -8 c-33 -4 -92
-14 -130 -22 -39 -9 -95 -15 -125 -15 -30 1 -71 -1 -91 -5 -29 -6 -41 -2 -67
20 -25 21 -39 26 -60 20 -15 -3 -46 -9 -69 -13 -41 -7 -113 -60 -113 -84 0 -6
10 -22 22 -35 l22 -24 -19 -36 c-11 -19 -34 -47 -52 -60 -20 -15 -37 -40 -43
-62 -5 -20 -24 -61 -43 -91 -35 -60 -33 -59 -132 -45 -48 7 -51 6 -67 -22 -12
-21 -15 -41 -11 -66 7 -48 -9 -68 -48 -60 -26 5 -29 3 -29 -18 0 -26 34 -89
48 -89 13 0 47 41 65 76 28 54 69 96 116 116 52 22 76 19 117 -17 16 -14 54
-37 84 -51 54 -26 99 -67 100 -91 1 -31 -71 -41 -116 -15 -18 9 -24 9 -35 -4
-7 -8 -25 -22 -41 -30 -26 -13 -27 -16 -14 -37 8 -12 17 -45 21 -74 6 -48 9
-53 41 -63 24 -8 40 -23 52 -47 12 -26 28 -39 56 -48 21 -8 50 -25 65 -38 14
-14 42 -28 61 -32 39 -8 80 -31 80 -45 0 -16 -42 -49 -71 -55 -39 -9 -79 -49
-79 -80 0 -16 12 -38 29 -56 27 -26 36 -29 99 -29 38 0 91 7 118 15 83 25 131
20 197 -21 52 -32 65 -36 123 -35 48 1 76 -5 106 -20 22 -11 72 -27 112 -35
39 -8 83 -24 98 -34 36 -27 84 -25 170 5 59 21 82 24 137 19 55 -5 69 -3 80
10 12 14 9 24 -17 74 -17 31 -33 74 -37 94 -7 35 -5 39 25 55 18 10 41 26 51
35 10 9 33 18 51 20 30 3 33 6 30 33 -6 65 -6 82 1 148 7 65 7 68 -17 77 -35
13 -66 116 -66 219 0 74 -1 78 -30 100 -17 12 -38 40 -46 62 -16 38 -36 50
-49 29 -3 -5 -17 -10 -29 -10 l-23 0 19 72 c10 39 24 80 29 90 18 33 19 139 2
191 -14 44 -14 52 1 91 9 23 16 67 16 98 0 31 5 60 10 63 6 3 10 18 10 32 l0
26 -112 -8 c-143 -11 -143 -11 -268 -2 -95 6 -110 5 -159 -16z"/>
</g>
</svg>
