<?xml version="1.0" standalone="no"?>
<!DOCTYPE svg PUBLIC "-//W3C//DTD SVG 20010904//EN"
 "http://www.w3.org/TR/2001/REC-SVG-20010904/DTD/svg10.dtd">
<svg version="1.0" xmlns="http://www.w3.org/2000/svg"
 width="172.000000pt" height="198.000000pt" viewBox="0 0 172.000000 198.000000"
 preserveAspectRatio="xMidYMid meet">
<metadata>
Created by potrace 1.16, written by Peter Selinger 2001-2019
</metadata>
<g transform="translate(0.000000,198.000000) scale(0.100000,-0.100000)"
fill="#000000" stroke="none">
<path d="M1085 1973 c-11 -3 -29 -14 -41 -24 -17 -16 -26 -18 -46 -10 -29 11
-38 6 -38 -20 0 -9 -9 -27 -19 -40 l-19 -24 -29 21 c-40 30 -194 42 -229 19
-23 -15 -24 -20 -18 -62 7 -51 13 -48 -57 -27 -19 6 -20 3 -18 -27 2 -19 -2
-43 -8 -54 -11 -19 -12 -19 -32 -1 -18 16 -26 17 -68 7 -26 -6 -91 -13 -143
-15 -52 -3 -109 -7 -126 -11 -22 -5 -46 -1 -78 13 l-46 21 0 -23 c0 -13 -9
-31 -21 -42 -44 -40 -63 -106 -34 -118 8 -3 15 -12 15 -19 0 -8 9 -22 20 -32
11 -10 20 -23 20 -30 0 -7 9 -20 20 -30 30 -27 26 -60 -10 -75 -31 -13 -38
-28 -19 -47 5 -5 13 -36 16 -67 7 -71 22 -85 69 -63 19 10 43 17 53 17 24 0
51 -41 51 -79 0 -17 5 -42 12 -56 9 -21 8 -32 -5 -60 -9 -19 -24 -35 -33 -35
-10 0 -14 -7 -12 -22 2 -18 11 -24 38 -26 19 -2 45 -13 58 -25 13 -12 33 -21
46 -19 30 4 48 -19 48 -63 0 -19 8 -45 17 -57 36 -46 101 -185 101 -213 0 -17
-7 -48 -15 -70 -21 -59 -18 -104 10 -150 14 -22 25 -48 25 -58 0 -22 57 -57
94 -57 22 0 40 -12 71 -46 l42 -45 54 9 c45 9 57 8 72 -5 9 -9 17 -22 17 -28
0 -17 23 -25 73 -25 82 0 117 -11 117 -34 0 -25 17 -46 38 -46 7 0 40 25 72
56 49 47 67 57 103 61 41 5 48 2 87 -33 35 -32 49 -38 88 -39 26 -1 57 -5 69
-9 14 -4 32 0 55 14 18 11 43 20 56 20 19 0 22 5 22 40 0 22 -6 42 -14 47 -7
4 -18 18 -25 30 -10 19 -8 24 14 39 20 13 25 24 25 58 0 33 -6 47 -29 67 l-29
25 3 185 c3 193 4 209 15 209 7 0 33 59 45 100 4 14 16 37 26 52 23 32 24 48
3 92 -15 31 -15 36 0 66 9 18 16 39 16 46 0 13 -54 120 -95 189 -14 22 -29 63
-35 91 -8 37 -17 54 -33 62 -29 14 -62 40 -100 80 -16 17 -36 32 -44 32 -7 0
-13 11 -13 27 0 35 -31 102 -48 103 -28 0 -91 40 -86 54 3 7 -2 37 -12 65 -12
38 -22 53 -40 57 -13 3 -26 14 -29 24 -10 31 -46 70 -63 69 -9 -1 -26 -3 -37
-6z"/>
</g>
</svg>
