<?xml version="1.0" standalone="no"?>
<!DOCTYPE svg PUBLIC "-//W3C//DTD SVG 20010904//EN"
 "http://www.w3.org/TR/2001/REC-SVG-20010904/DTD/svg10.dtd">
<svg version="1.0" xmlns="http://www.w3.org/2000/svg"
 width="258.000000pt" height="191.000000pt" viewBox="0 0 258.000000 191.000000"
 preserveAspectRatio="xMidYMid meet">
<metadata>
Created by potrace 1.16, written by Peter Selinger 2001-2019
</metadata>
<g transform="translate(0.000000,191.000000) scale(0.100000,-0.100000)"
fill="#000000" stroke="none">
<path d="M1341 1857 c-12 -29 -19 -61 -15 -71 10 -27 -31 -60 -67 -52 -36 7
-64 -15 -79 -60 -14 -42 -45 -55 -99 -41 -42 11 -43 11 -69 -21 -31 -37 -42
-39 -66 -13 -9 10 -35 22 -57 25 -35 6 -48 2 -85 -23 -39 -25 -48 -28 -73 -18
-26 10 -33 7 -65 -21 -20 -18 -46 -32 -56 -32 -30 0 -60 36 -60 70 0 16 -8 37
-17 45 -10 9 -33 29 -51 45 -35 32 -53 34 -134 21 -27 -4 -69 -4 -95 0 -27 4
-78 5 -115 2 -61 -5 -68 -8 -68 -27 0 -12 -5 -27 -12 -34 -6 -6 -12 -37 -14
-69 -1 -32 -7 -77 -15 -100 -10 -34 -10 -49 0 -80 13 -40 10 -109 -9 -198 -25
-118 -26 -108 7 -101 29 7 31 5 49 -46 17 -47 35 -66 77 -81 5 -1 10 -52 12
-114 4 -127 20 -179 58 -188 28 -8 43 -55 27 -85 -13 -25 -13 -99 1 -139 14
-40 -5 -72 -53 -90 -18 -7 -49 -21 -68 -32 -32 -17 -35 -22 -33 -59 1 -26 13
-56 32 -85 28 -42 29 -46 16 -72 l-15 -28 98 -6 c141 -8 288 -36 322 -61 25
-18 38 -20 89 -15 32 4 79 14 103 23 23 8 62 20 86 26 49 11 127 61 192 122
72 67 149 119 238 160 71 33 86 37 112 27 40 -13 113 -1 220 39 178 65 176 65
288 42 127 -26 214 -18 291 28 29 16 65 30 82 30 16 0 57 14 90 31 33 18 74
35 91 38 27 6 32 13 43 54 7 26 22 58 34 70 28 31 27 44 -9 77 -23 21 -30 37
-30 65 0 30 -7 43 -45 77 -48 44 -55 69 -29 106 13 18 25 22 74 22 l58 0 15
48 c9 26 16 84 17 130 0 46 6 93 13 104 10 17 9 22 -10 35 -15 10 -23 26 -23
43 0 21 -7 30 -31 40 -33 14 -49 44 -49 89 0 38 -15 48 -83 53 -46 4 -63 10
-88 34 -24 23 -39 29 -75 29 -41 1 -50 -4 -106 -57 -33 -32 -65 -58 -70 -58
-24 0 -74 32 -83 53 -9 20 -16 22 -76 19 -62 -4 -67 -2 -88 23 -11 15 -21 34
-21 42 0 12 -11 14 -60 8 l-61 -7 -47 44 c-34 32 -59 47 -88 51 -45 7 -78 37
-109 99 -11 23 -26 43 -32 45 -6 2 -20 -20 -32 -50z"/>
</g>
</svg>
