<?xml version="1.0" standalone="no"?>
<!DOCTYPE svg PUBLIC "-//W3C//DTD SVG 20010904//EN"
 "http://www.w3.org/TR/2001/REC-SVG-20010904/DTD/svg10.dtd">
<svg version="1.0" xmlns="http://www.w3.org/2000/svg"
 width="158.000000pt" height="104.000000pt" viewBox="0 0 158.000000 104.000000"
 preserveAspectRatio="xMidYMid meet">
<metadata>
Created by potrace 1.16, written by Peter Selinger 2001-2019
</metadata>
<g transform="translate(0.000000,104.000000) scale(0.100000,-0.100000)"
fill="#000000" stroke="none">
<path d="M1105 1020 c-16 -11 -38 -20 -49 -20 -10 0 -33 -9 -50 -19 -17 -10
-46 -22 -63 -26 -18 -3 -33 -12 -33 -19 0 -15 -78 -138 -94 -148 -6 -4 -53 -8
-104 -8 -51 0 -118 -7 -150 -15 -31 -7 -121 -18 -199 -22 -137 -8 -143 -10
-172 -37 -16 -15 -32 -39 -35 -52 -4 -14 -22 -32 -44 -43 -53 -27 -65 -45 -60
-86 3 -31 1 -35 -18 -35 -42 0 -39 -31 4 -44 41 -13 55 -47 42 -108 -13 -63
-17 -162 -9 -186 4 -9 2 -28 -3 -42 -14 -38 -2 -73 24 -67 11 3 31 1 45 -4 18
-7 28 -5 41 7 17 17 73 44 92 44 6 0 33 -20 59 -45 63 -59 86 -59 112 3 11 26
29 56 39 67 10 11 20 36 22 55 3 30 7 35 32 38 18 2 40 -4 58 -18 28 -20 33
-21 121 -10 51 6 120 15 153 21 34 5 78 9 99 9 34 0 37 2 31 24 -8 31 24 61
55 51 19 -6 21 -4 17 19 -3 14 -1 26 4 26 5 0 24 12 43 26 37 28 33 27 155 18
54 -4 91 -12 102 -21 18 -16 17 -18 43 56 4 9 15 11 38 7 33 -6 127 25 127 42
0 4 -14 20 -30 36 -18 18 -30 40 -30 55 0 45 -70 211 -106 251 -19 21 -37 51
-40 67 -3 16 -15 33 -27 38 -12 6 -27 20 -33 32 -15 31 -80 76 -130 91 -51 15
-43 16 -79 -8z"/>
</g>
</svg>
