<?xml version="1.0" standalone="no"?>
<!DOCTYPE svg PUBLIC "-//W3C//DTD SVG 20010904//EN"
 "http://www.w3.org/TR/2001/REC-SVG-20010904/DTD/svg10.dtd">
<svg version="1.0" xmlns="http://www.w3.org/2000/svg"
 width="157.000000pt" height="147.000000pt" viewBox="0 0 157.000000 147.000000"
 preserveAspectRatio="xMidYMid meet">
<metadata>
Created by potrace 1.16, written by Peter Selinger 2001-2019
</metadata>
<g transform="translate(0.000000,147.000000) scale(0.100000,-0.100000)"
fill="#000000" stroke="none">
<path d="M126 1458 c-11 -6 -41 -8 -72 -5 -60 6 -65 0 -39 -49 8 -16 15 -39
15 -51 0 -13 12 -28 35 -42 19 -11 40 -32 47 -46 6 -14 15 -25 19 -25 17 0 79
-63 79 -80 0 -10 9 -28 19 -41 17 -22 22 -23 50 -12 18 6 33 7 36 2 7 -11 -5
-128 -15 -149 -4 -8 -2 -28 5 -45 9 -21 10 -36 3 -48 -8 -15 -5 -22 11 -34 12
-8 21 -23 21 -34 0 -10 5 -19 10 -19 6 0 25 -20 42 -45 22 -31 39 -45 54 -45
13 0 25 -4 29 -9 3 -5 21 -7 41 -4 32 5 36 3 46 -24 10 -27 17 -31 61 -36 71
-9 132 -41 148 -78 10 -27 10 -35 -6 -62 -29 -50 -59 -86 -72 -86 -30 -2 -12
-28 62 -86 41 -33 26 -57 -46 -70 -44 -8 -54 -14 -54 -30 0 -17 8 -21 47 -23
38 -2 53 -9 75 -33 83 -91 75 -87 149 -94 79 -7 120 -21 128 -41 7 -19 51 -18
70 2 9 8 16 29 16 45 0 36 42 104 68 111 11 3 33 -3 49 -13 44 -29 69 -24 97
19 13 20 32 61 41 90 12 38 30 65 61 94 46 43 54 62 29 72 -9 3 -15 18 -15 39
0 27 8 41 40 70 36 32 40 41 40 81 0 25 5 66 12 91 l12 44 -50 48 c-27 26 -71
67 -97 91 -26 24 -47 48 -47 55 0 7 14 25 31 41 25 24 29 34 23 60 -3 17 -17
42 -30 57 -14 14 -24 37 -24 53 0 25 -3 27 -22 22 -13 -4 -46 -9 -74 -13 -46
-5 -57 -2 -112 30 -56 33 -66 35 -116 30 -31 -3 -61 -12 -67 -19 -20 -24 -83
-17 -110 12 -13 14 -41 35 -62 45 -21 11 -40 26 -44 34 -7 20 -13 19 -47 -10
-33 -28 -39 -29 -68 -14 -13 7 -23 8 -27 1 -10 -15 -49 -24 -56 -12 -3 5 -16
10 -29 10 -13 0 -35 13 -49 30 -21 23 -36 30 -62 30 -44 0 -79 20 -127 73 -33
37 -39 40 -62 29 -20 -9 -29 -8 -49 9 -28 22 -44 23 -71 7z"/>
</g>
</svg>
