<?xml version="1.0" standalone="no"?>
<!DOCTYPE svg PUBLIC "-//W3C//DTD SVG 20010904//EN"
 "http://www.w3.org/TR/2001/REC-SVG-20010904/DTD/svg10.dtd">
<svg version="1.0" xmlns="http://www.w3.org/2000/svg"
 width="185.000000pt" height="68.000000pt" viewBox="0 0 185.000000 68.000000"
 preserveAspectRatio="xMidYMid meet">
<metadata>
Created by potrace 1.16, written by Peter Selinger 2001-2019
</metadata>
<g transform="translate(0.000000,68.000000) scale(0.100000,-0.100000)"
fill="#000000" stroke="none">
<path d="M625 645 c-19 -39 -42 -49 -85 -40 -24 5 -34 1 -57 -25 -56 -64 -63
-70 -83 -70 -13 0 -20 -7 -20 -18 0 -24 -68 -89 -102 -97 -19 -5 -39 0 -67 16
l-41 23 -20 -22 c-14 -15 -33 -22 -56 -22 -27 0 -42 -8 -65 -32 -16 -18 -29
-41 -29 -50 0 -17 18 -56 30 -68 25 -23 50 -67 50 -86 0 -22 4 -24 44 -24 36
0 49 -6 74 -31 29 -30 32 -31 69 -19 21 7 44 17 51 23 21 16 113 8 150 -14 49
-28 78 -25 98 12 15 29 18 31 59 24 25 -3 71 -17 104 -31 44 -17 79 -24 131
-24 57 0 74 -4 90 -20 11 -11 20 -24 20 -30 0 -20 49 -22 74 -3 18 14 43 21
87 22 66 2 83 12 95 61 11 42 34 60 75 60 22 0 41 6 46 14 11 18 87 56 113 56
12 0 35 -7 51 -16 39 -20 160 -22 214 -4 109 35 167 100 91 100 -27 0 -41 8
-66 38 -18 20 -48 46 -68 57 -20 11 -43 33 -52 49 -22 41 -60 67 -106 72 -33
4 -44 0 -64 -21 -19 -21 -33 -25 -77 -25 -30 0 -79 8 -111 19 -31 10 -88 21
-127 23 -44 4 -93 15 -132 32 -66 27 -112 33 -130 15 -20 -20 -100 10 -138 53
-32 35 -70 58 -95 58 -5 0 -16 -16 -25 -35z"/>
</g>
</svg>
