<?xml version="1.0" standalone="no"?>
<!DOCTYPE svg PUBLIC "-//W3C//DTD SVG 20010904//EN"
 "http://www.w3.org/TR/2001/REC-SVG-20010904/DTD/svg10.dtd">
<svg version="1.0" xmlns="http://www.w3.org/2000/svg"
 width="356.000000pt" height="234.000000pt" viewBox="0 0 356.000000 234.000000"
 preserveAspectRatio="xMidYMid meet">
<metadata>
Created by potrace 1.16, written by Peter Selinger 2001-2019
</metadata>
<g transform="translate(0.000000,234.000000) scale(0.100000,-0.100000)"
fill="#000000" stroke="none">
<path d="M820 2324 c0 -18 -23 -44 -40 -44 -15 0 -40 -25 -40 -40 0 -17 -26
-40 -44 -40 -9 0 -16 5 -16 10 0 6 -19 10 -42 10 l-43 -1 48 -21 c38 -17 47
-25 47 -45 0 -22 -3 -24 -22 -18 -53 18 -133 16 -192 -4 -73 -26 -82 -26 -131
-1 -58 30 -78 26 -132 -27 -53 -53 -145 -103 -186 -103 -27 0 -27 0 -27 -80
l0 -80 88 0 c48 0 107 -6 132 -14 l45 -13 -5 -69 c-9 -122 -4 -201 14 -228 23
-36 20 -71 -14 -151 -25 -57 -30 -83 -30 -147 0 -63 -5 -85 -25 -124 -31 -59
-34 -123 -5 -144 17 -12 20 -26 20 -92 0 -71 2 -78 20 -78 13 0 20 -7 20 -18
0 -10 -9 -24 -20 -32 -11 -8 -20 -21 -20 -30 0 -9 -9 -22 -20 -30 -25 -18 -29
-90 -5 -90 18 0 105 -84 105 -100 0 -15 25 -40 40 -40 6 0 42 -32 80 -70 l69
-70 106 0 c63 0 105 4 105 10 0 6 11 10 25 10 14 0 37 11 50 25 22 21 25 33
25 100 0 43 -4 75 -10 75 -5 0 -10 9 -10 20 0 11 -4 20 -10 20 -5 0 -10 9 -10
20 0 11 5 20 10 20 15 0 13 117 -2 122 -8 3 -3 14 14 31 19 19 37 27 63 27 19
0 35 5 35 10 0 6 9 10 20 10 11 0 20 5 20 10 0 6 18 10 40 10 22 0 40 5 40 10
0 6 14 10 30 10 17 0 30 5 30 10 0 6 7 10 15 10 18 0 105 -84 105 -101 0 -6
18 -28 40 -49 22 -21 40 -45 40 -52 0 -7 9 -20 20 -28 11 -8 20 -22 20 -32 0
-10 5 -18 10 -18 6 0 10 -55 10 -146 l0 -146 40 -38 c39 -38 40 -40 40 -110 0
-67 2 -72 35 -105 l34 -35 143 0 c132 0 145 2 158 20 8 11 21 20 30 20 9 0 22
9 30 20 8 11 22 20 31 20 10 0 20 6 23 13 5 9 7 9 12 0 8 -18 111 -17 130 1 8
8 14 21 14 28 0 8 9 20 20 28 11 8 20 22 20 32 0 11 7 18 20 18 11 0 20 5 20
10 0 6 9 10 19 10 11 0 22 6 25 13 5 9 7 9 12 0 3 -8 26 -13 61 -13 51 0 57 3
93 40 34 35 44 40 84 40 25 0 46 5 46 10 0 6 43 10 110 10 67 0 110 4 110 10
0 6 11 10 25 10 16 0 39 13 60 35 32 31 35 40 35 90 0 30 -4 55 -10 55 -5 0
-10 9 -10 20 0 11 5 20 10 20 6 0 10 14 10 30 0 17 5 30 10 30 6 0 10 11 10
25 0 14 11 37 25 50 23 24 29 25 165 25 146 0 170 -6 170 -44 0 -12 10 -16 36
-16 28 0 43 8 74 40 25 26 47 40 64 40 14 0 26 5 26 10 0 6 18 10 40 10 22 0
40 5 40 10 0 6 16 10 36 10 55 0 64 16 64 114 0 51 -4 86 -10 86 -6 0 -10 27
-10 60 0 47 -3 60 -15 60 -9 0 -31 16 -50 35 -34 34 -35 36 -35 120 0 50 -4
85 -10 85 -6 0 -10 30 -10 70 l0 70 -66 0 c-60 0 -68 3 -94 30 -15 17 -35 30
-44 30 -9 0 -16 5 -16 10 0 6 -7 10 -15 10 -9 0 -31 16 -50 35 -31 30 -35 40
-35 85 0 48 -3 54 -50 100 -46 45 -64 80 -40 80 6 0 10 35 10 85 0 78 -2 88
-25 110 -21 22 -33 25 -95 25 l-71 0 -60 -61 -59 -60 -49 50 c-40 41 -56 51
-83 51 -22 0 -39 -7 -48 -20 -15 -21 -50 -28 -50 -10 0 15 -137 13 -143 -2 -3
-9 -11 -6 -24 10 -15 16 -31 22 -59 22 -26 0 -34 -3 -25 -9 17 -11 -2 -51 -25
-51 -9 0 -24 -20 -35 -48 -24 -57 -38 -67 -104 -76 -111 -15 -164 60 -165 229
0 79 -3 92 -20 105 -11 8 -20 20 -20 28 0 26 -28 42 -74 42 -25 0 -46 -4 -46
-10 0 -5 -13 -10 -30 -10 -16 0 -30 -4 -30 -10 0 -5 -9 -10 -20 -10 -11 0 -20
-4 -20 -10 0 -6 -29 -10 -66 -10 -63 0 -67 1 -104 40 -35 37 -43 40 -92 40
-42 0 -57 -4 -68 -20 -8 -11 -21 -20 -30 -20 -9 0 -22 -9 -30 -20 -15 -21 -50
-28 -50 -10 0 6 -9 10 -20 10 -11 0 -20 5 -20 10 0 6 -33 10 -80 10 -47 0 -80
4 -80 10 0 6 -7 10 -16 10 -9 0 -29 14 -44 30 -23 25 -36 30 -74 30 -35 0 -46
-4 -46 -16z"/>
<path d="M143 2154 c-115 -117 -63 -119 57 -1 32 31 64 57 70 57 6 0 34 -10
62 -22 54 -23 68 -22 193 16 l50 15 -57 0 c-33 1 -58 -3 -58 -9 0 -5 -22 -10
-50 -10 -27 0 -50 5 -50 10 0 6 -32 10 -77 9 l-78 -1 -62 -64z"/>
<path d="M2120 2035 c0 -27 -59 -95 -82 -95 -8 0 -20 9 -28 20 -8 11 -24 20
-35 20 -17 -1 -16 -4 13 -30 58 -53 142 -27 142 44 0 15 5 36 10 47 8 15 7 19
-5 19 -9 0 -15 -9 -15 -25z"/>
<path d="M180 1680 c0 -73 4 -120 10 -120 6 0 10 -13 10 -30 0 -16 5 -30 10
-30 14 0 13 -77 -1 -82 -6 -2 -9 -21 -7 -43 l3 -40 23 66 c25 72 23 96 -9 161
-23 45 -25 134 -5 183 14 32 13 36 -4 45 -10 5 -21 10 -24 10 -3 0 -6 -54 -6
-120z"/>
</g>
</svg>
