<?xml version="1.0" standalone="no"?>
<!DOCTYPE svg PUBLIC "-//W3C//DTD SVG 20010904//EN"
 "http://www.w3.org/TR/2001/REC-SVG-20010904/DTD/svg10.dtd">
<svg version="1.0" xmlns="http://www.w3.org/2000/svg"
 width="282.000000pt" height="278.000000pt" viewBox="0 0 282.000000 278.000000"
 preserveAspectRatio="xMidYMid meet">
<metadata>
Created by potrace 1.16, written by Peter Selinger 2001-2019
</metadata>
<g transform="translate(0.000000,278.000000) scale(0.100000,-0.100000)"
fill="#000000" stroke="none">
<path d="M1320 2770 c0 -5 -9 -10 -20 -10 -11 0 -20 -4 -20 -10 0 -6 -39 -10
-98 -10 -86 0 -99 -2 -112 -20 -12 -16 -26 -20 -78 -20 -65 0 -92 -13 -92 -44
0 -9 -4 -16 -10 -16 -5 0 -10 5 -10 10 0 6 -42 10 -106 10 -105 0 -106 0 -134
-30 -27 -29 -80 -42 -80 -20 0 6 -13 10 -30 10 -16 0 -30 5 -30 10 0 6 -26 10
-58 10 -46 0 -60 -4 -72 -20 -15 -21 -70 -28 -70 -10 0 6 -27 10 -60 10 -33 0
-60 -4 -60 -10 0 -5 -7 -10 -16 -10 -28 0 -44 -27 -44 -74 0 -25 5 -46 10 -46
6 0 10 -9 10 -20 0 -11 5 -20 10 -20 6 0 10 -9 10 -19 0 -11 6 -22 13 -25 9
-5 9 -7 0 -12 -8 -3 -13 -25 -13 -55 0 -46 -2 -49 -25 -49 -17 0 -41 -15 -70
-45 l-45 -44 0 -116 c0 -70 -4 -115 -10 -115 -6 0 -10 -27 -10 -60 0 -33 4
-60 10 -60 6 0 10 -12 10 -26 0 -16 12 -37 30 -54 17 -15 30 -34 30 -42 0 -7
9 -20 20 -28 11 -8 20 -22 20 -32 0 -14 8 -18 40 -18 22 0 40 -4 40 -10 0 -5
14 -10 30 -10 17 0 30 -4 30 -10 0 -5 18 -10 40 -10 22 0 40 -4 40 -10 0 -5
11 -10 25 -10 34 0 95 -61 95 -95 0 -14 5 -25 10 -25 6 0 10 -26 10 -59 0 -38
4 -61 13 -64 8 -3 5 -11 -10 -24 -13 -11 -23 -28 -23 -37 0 -9 -4 -16 -10 -16
-5 0 -10 -7 -10 -16 0 -9 -13 -29 -30 -44 -16 -15 -30 -33 -30 -39 0 -7 -16
-27 -35 -46 -29 -30 -41 -35 -80 -35 l-45 0 0 -50 c0 -27 5 -50 10 -50 6 0 10
-9 10 -20 0 -11 5 -20 10 -20 6 0 10 -8 10 -18 0 -10 9 -24 20 -32 11 -8 20
-26 20 -40 0 -14 9 -32 20 -40 11 -8 20 -20 20 -28 0 -18 25 -42 44 -42 9 0
16 -4 16 -10 0 -5 8 -10 18 -10 10 0 24 -9 32 -20 8 -11 22 -20 32 -20 10 0
18 -4 18 -10 0 -5 9 -10 20 -10 11 0 20 -4 20 -10 0 -5 8 -10 18 -10 10 0 24
-9 32 -20 8 -11 26 -20 40 -20 14 0 32 -9 40 -20 8 -11 22 -20 32 -20 10 0 18
-4 18 -10 0 -5 7 -10 15 -10 9 0 27 -11 40 -25 24 -23 25 -30 25 -140 l0 -115
60 0 c33 0 60 -4 60 -10 0 -5 23 -10 50 -10 28 0 50 -4 50 -10 0 -6 39 -10 98
-10 86 0 99 -2 112 -20 8 -12 26 -20 42 -20 15 0 28 -4 28 -10 0 -6 43 -10
110 -10 67 0 110 4 110 10 0 15 29 12 46 -4 8 -8 14 -22 14 -30 0 -9 5 -16 10
-16 6 0 10 -7 10 -16 0 -9 14 -29 30 -44 17 -15 30 -35 30 -44 0 -13 11 -16
50 -16 28 0 50 5 50 10 0 6 23 10 50 10 28 0 50 5 50 10 0 6 14 10 30 10 17 0
30 -4 30 -10 0 -5 9 -10 20 -10 11 0 20 -4 20 -10 0 -6 37 -10 90 -10 53 0 90
4 90 10 0 6 13 10 28 10 16 0 34 8 42 20 8 11 22 20 32 20 10 0 18 5 18 10 0
6 9 10 20 10 11 0 20 5 20 10 0 6 9 10 19 10 11 0 21 6 23 12 3 8 26 -9 56
-40 47 -48 54 -52 96 -52 l46 0 0 80 c0 47 -4 80 -10 80 -5 0 -10 16 -10 35 0
43 37 85 75 85 14 0 25 5 25 10 0 6 17 10 38 10 26 0 42 6 52 20 8 12 26 20
42 20 27 0 28 2 28 50 0 28 -4 50 -10 50 -5 0 -10 9 -10 20 0 11 -4 20 -10 20
-5 0 -10 18 -10 40 l0 40 40 0 c39 0 40 1 40 36 0 27 -7 43 -30 64 -26 25 -30
35 -30 84 0 31 5 56 10 56 6 0 10 9 10 20 0 11 5 20 10 20 6 0 10 25 10 56 0
54 -1 56 -60 114 -55 54 -75 90 -50 90 6 0 10 21 10 46 0 41 -4 50 -50 94
l-50 49 0 143 c0 132 -2 145 -20 158 -11 8 -20 21 -20 30 0 9 -9 22 -20 30
-11 8 -20 22 -20 32 0 10 -4 18 -10 18 -5 0 -10 9 -10 20 0 11 -4 20 -10 20
-5 0 -10 7 -10 16 0 8 -6 22 -14 30 -16 16 -86 19 -86 4 0 -5 -13 -10 -30 -10
-16 0 -30 -4 -30 -10 0 -5 -22 -10 -50 -10 -27 0 -50 -4 -50 -10 0 -5 -13 -10
-30 -10 -16 0 -30 -4 -30 -10 0 -5 -9 -10 -20 -10 -18 0 -20 -7 -20 -70 0 -40
-4 -70 -10 -70 -5 0 -10 -21 -10 -46 0 -38 5 -51 30 -74 24 -22 30 -36 30 -69
0 -36 -6 -48 -45 -86 -29 -30 -53 -45 -70 -45 -14 0 -25 -4 -25 -10 0 -5 -9
-10 -19 -10 -10 0 -21 -7 -25 -15 -4 -11 -23 -15 -80 -15 l-75 0 -28 42 c-44
65 -80 95 -136 116 -50 19 -52 21 -57 63 -4 39 -9 45 -36 54 -38 12 -64 33
-64 51 0 7 -13 23 -30 35 -16 12 -27 26 -24 31 4 5 18 -1 33 -15 14 -13 50
-37 78 -52 39 -21 56 -37 65 -61 8 -23 26 -40 61 -59 29 -16 69 -53 100 -90
47 -57 52 -61 55 -40 2 18 -11 38 -52 80 -31 30 -60 55 -66 55 -14 0 -80 66
-80 80 0 16 -47 60 -65 60 -12 0 -15 13 -15 66 0 60 -3 68 -30 94 -29 27 -30
30 -30 122 0 82 -2 95 -20 108 -21 15 -28 50 -10 50 6 0 10 9 10 20 0 11 5 20
10 20 6 0 10 14 10 30 0 17 5 30 10 30 6 0 10 39 10 98 0 86 2 99 20 112 18
13 20 26 20 112 0 59 -4 98 -10 98 -5 0 -10 14 -10 30 0 17 -4 30 -10 30 -5 0
-10 23 -10 50 0 28 5 50 10 50 6 0 10 18 10 40 l0 40 -110 0 c-67 0 -110 -4
-110 -10z"/>
</g>
</svg>
