<?xml version="1.0" standalone="no"?>
<!DOCTYPE svg PUBLIC "-//W3C//DTD SVG 20010904//EN"
 "http://www.w3.org/TR/2001/REC-SVG-20010904/DTD/svg10.dtd">
<svg version="1.0" xmlns="http://www.w3.org/2000/svg"
 width="218.000000pt" height="118.000000pt" viewBox="0 0 218.000000 118.000000"
 preserveAspectRatio="xMidYMid meet">
<metadata>
Created by potrace 1.16, written by Peter Selinger 2001-2019
</metadata>
<g transform="translate(0.000000,118.000000) scale(0.100000,-0.100000)"
fill="#000000" stroke="none">
<path d="M210 1160 c-8 -11 -22 -20 -32 -20 -10 0 -18 -4 -18 -10 0 -5 -11
-10 -25 -10 -17 0 -43 -17 -80 -55 -53 -53 -55 -56 -55 -109 0 -34 5 -57 13
-60 9 -5 9 -7 0 -12 -16 -7 -19 -244 -3 -244 6 0 10 -16 10 -36 0 -38 18 -64
44 -64 9 0 16 -4 16 -10 0 -5 -9 -10 -20 -10 -18 0 -20 -7 -20 -60 0 -33 4
-60 10 -60 6 0 10 -18 10 -40 0 -22 -4 -40 -10 -40 -5 0 -10 -13 -10 -28 0
-16 -8 -34 -20 -42 -16 -12 -20 -26 -20 -78 0 -53 4 -67 25 -87 13 -14 29 -25
36 -25 6 0 24 -13 39 -30 26 -27 34 -30 94 -30 37 0 66 4 66 10 0 6 7 10 16
10 20 0 44 24 44 44 0 13 12 16 60 16 53 0 60 -2 60 -20 0 -17 7 -20 50 -20
28 0 50 -4 50 -10 0 -6 83 -10 230 -10 147 0 230 4 230 10 0 6 43 10 108 10
96 0 109 -2 122 -20 12 -17 26 -20 82 -20 39 0 68 4 68 10 0 6 14 10 30 10 17
0 30 5 30 10 0 6 27 10 60 10 33 0 60 4 60 10 0 6 14 10 30 10 17 0 30 -4 30
-10 0 -6 29 -10 66 -10 63 0 67 1 104 40 25 26 47 40 64 40 14 0 26 5 26 10 0
6 14 10 30 10 17 0 30 5 30 10 0 6 23 10 50 10 43 0 50 3 50 20 0 11 5 20 10
20 6 0 10 13 10 28 0 16 8 34 20 42 12 8 20 26 20 42 0 15 5 28 10 28 6 0 10
13 10 28 0 16 8 34 20 42 12 8 20 26 20 42 0 15 5 28 10 28 6 0 10 29 10 66 0
64 -13 94 -40 94 -19 0 -40 27 -40 53 0 14 -6 28 -12 31 -10 5 -10 7 0 12 8 4
12 30 12 80 l0 75 -70 69 c-38 38 -70 75 -70 82 0 8 -9 20 -20 28 -11 8 -20
20 -20 28 0 35 -26 42 -164 42 -84 0 -136 -4 -136 -10 0 -6 -30 -10 -70 -10
-40 0 -70 -4 -70 -10 0 -6 -27 -10 -60 -10 -33 0 -60 4 -60 10 0 6 -9 10 -20
10 -11 0 -20 5 -20 10 0 15 -117 13 -124 -2 -5 -10 -7 -10 -12 0 -4 8 -30 12
-81 12 -71 0 -76 -2 -104 -31 l-29 -32 -19 22 c-16 18 -29 21 -95 21 -44 0
-76 4 -76 10 0 6 -53 10 -140 10 -87 0 -140 4 -140 10 0 6 -33 10 -80 10 -47
0 -80 4 -80 10 0 6 -26 10 -58 10 -46 0 -60 -4 -72 -20z"/>
</g>
</svg>
