<?xml version="1.0" standalone="no"?>
<!DOCTYPE svg PUBLIC "-//W3C//DTD SVG 20010904//EN"
 "http://www.w3.org/TR/2001/REC-SVG-20010904/DTD/svg10.dtd">
<svg version="1.0" xmlns="http://www.w3.org/2000/svg"
 width="250.000000pt" height="386.000000pt" viewBox="0 0 250.000000 386.000000"
 preserveAspectRatio="xMidYMid meet">
<metadata>
Created by potrace 1.16, written by Peter Selinger 2001-2019
</metadata>
<g transform="translate(0.000000,386.000000) scale(0.100000,-0.100000)"
fill="#000000" stroke="none">
<path d="M1340 3850 c0 -5 -9 -10 -20 -10 -11 0 -20 -5 -20 -11 0 -8 -15 -10
-48 -5 -39 5 -53 3 -70 -13 -12 -10 -22 -24 -22 -31 0 -6 -13 -25 -30 -40 -16
-15 -30 -34 -30 -42 0 -7 -9 -20 -20 -28 -11 -8 -20 -21 -20 -28 0 -7 -18 -31
-40 -52 -22 -21 -40 -45 -40 -52 0 -7 -9 -20 -20 -28 -17 -12 -20 -26 -20 -92
0 -45 4 -78 10 -78 6 0 10 -13 10 -30 0 -16 5 -30 10 -30 6 0 10 -13 10 -29 0
-16 5 -31 12 -33 8 -3 3 -14 -14 -31 -21 -21 -37 -27 -68 -27 -43 0 -70 -17
-70 -44 0 -9 -4 -16 -10 -16 -5 0 -10 -25 -10 -55 0 -46 -4 -60 -25 -80 -13
-14 -33 -25 -45 -25 -13 0 -58 -37 -120 -100 -88 -89 -103 -100 -135 -100 -19
0 -35 5 -35 10 0 6 -9 10 -20 10 -11 0 -20 5 -20 10 0 6 -33 10 -80 10 l-80 0
0 -38 c0 -26 -6 -42 -20 -52 -11 -8 -20 -20 -20 -28 0 -33 -27 -42 -124 -42
l-96 0 0 -50 c0 -27 5 -50 10 -50 6 0 10 -13 10 -30 0 -16 5 -30 10 -30 6 0
10 -9 10 -20 0 -11 5 -20 10 -20 6 0 10 -13 10 -30 0 -16 5 -30 10 -30 6 0 10
-7 10 -16 0 -23 25 -44 54 -44 14 0 26 -4 26 -10 0 -5 9 -10 20 -10 11 0 20
-4 20 -10 0 -5 14 -10 30 -10 17 0 30 -4 30 -10 0 -5 14 -10 30 -10 17 0 30
-4 30 -10 0 -5 7 -10 15 -10 9 0 27 -11 40 -25 19 -18 25 -35 25 -70 0 -25 -4
-45 -10 -45 -6 0 -10 -30 -10 -70 0 -40 -4 -70 -10 -70 -5 0 -10 -13 -10 -30
0 -16 -4 -30 -10 -30 -6 0 -10 -37 -10 -90 0 -53 4 -90 10 -90 6 0 10 -9 10
-20 0 -11 5 -20 10 -20 6 0 10 -9 10 -20 0 -11 5 -20 10 -20 6 0 10 -9 10 -20
0 -11 5 -20 10 -20 6 0 10 -9 10 -20 0 -11 5 -20 10 -20 6 0 10 -13 10 -30 0
-16 5 -30 10 -30 6 0 10 -7 10 -16 0 -28 27 -44 74 -44 25 0 46 5 46 10 0 6
27 10 60 10 33 0 60 4 60 10 0 18 31 10 55 -15 19 -18 25 -35 25 -70 0 -25 5
-45 10 -45 6 0 10 -9 10 -20 0 -11 5 -20 10 -20 6 0 10 -18 10 -40 0 -38 2
-40 30 -40 17 0 30 -4 30 -10 0 -5 13 -10 28 -10 16 0 34 -8 42 -20 8 -11 21
-20 30 -20 9 0 22 -9 30 -20 8 -11 20 -20 27 -20 7 0 65 -52 128 -115 l116
-115 -25 -25 c-14 -14 -30 -25 -36 -25 -6 0 -26 -16 -45 -35 -29 -28 -35 -42
-35 -76 0 -33 6 -47 30 -69 17 -15 30 -33 30 -40 0 -7 13 -25 30 -40 29 -27
40 -60 20 -60 -5 0 -10 -18 -10 -40 0 -22 -4 -40 -10 -40 -5 0 -10 -9 -10 -20
0 -11 -4 -20 -10 -20 -6 0 -10 -28 -10 -65 l0 -65 55 -55 55 -55 130 0 130 0
55 -55 c30 -30 55 -61 55 -70 0 -11 10 -15 35 -15 30 0 45 10 100 65 36 35 65
69 65 75 0 16 188 200 205 200 8 0 15 5 15 10 0 6 18 10 40 10 33 0 40 3 40
20 0 11 5 20 10 20 6 0 10 14 10 30 0 17 5 30 10 30 15 0 13 177 -2 183 -8 2
4 20 29 45 24 22 43 47 43 54 0 7 9 20 20 28 11 8 20 21 20 30 0 9 9 22 20 30
14 10 20 26 20 52 0 21 -4 38 -10 38 -5 0 -10 9 -10 20 0 11 -4 20 -10 20 -5
0 -10 13 -10 29 0 16 -6 31 -12 33 -7 3 14 31 50 66 61 60 62 62 62 116 0 31
-4 56 -10 56 -5 0 -10 9 -10 20 0 11 -4 20 -10 20 -5 0 -10 9 -10 20 0 11 -4
20 -10 20 -5 0 -10 9 -10 19 0 11 -6 22 -12 25 -10 5 -10 7 0 12 6 3 12 23 12
45 0 21 5 39 10 39 6 0 10 35 10 86 0 83 -1 87 -30 114 -16 15 -30 34 -30 42
0 7 -9 20 -20 28 -11 8 -20 21 -20 28 0 7 -18 31 -40 52 l-40 38 0 82 c0 78 1
83 30 110 24 22 30 36 30 70 0 36 -6 47 -50 90 -50 49 -50 49 -50 114 0 37 4
66 10 66 6 0 10 22 10 48 0 36 -5 51 -20 62 -11 8 -20 26 -20 40 0 14 -9 32
-20 40 -15 11 -20 26 -20 58 0 38 5 49 40 82 l40 38 0 86 0 86 70 0 c40 0 70
4 70 10 0 6 23 10 50 10 l50 0 0 68 c0 56 3 70 20 82 11 8 20 22 20 32 0 10 5
18 10 18 6 0 10 9 10 20 0 11 5 20 10 20 6 0 10 20 10 45 0 36 -6 52 -26 72
-23 23 -30 25 -76 19 -28 -4 -71 -17 -96 -28 l-45 -22 -26 30 c-14 16 -38 44
-52 62 -20 26 -36 35 -68 39 -41 6 -44 8 -74 72 -29 59 -35 67 -66 71 -37 5
-53 26 -27 36 30 12 83 -15 97 -49 23 -58 49 -86 88 -97 23 -6 52 -26 75 -50
20 -22 46 -40 56 -40 11 0 20 2 20 5 0 15 -92 95 -110 95 -27 0 -90 63 -90 90
0 31 -24 50 -60 50 -23 0 -40 9 -60 30 -23 24 -36 30 -72 30 -32 0 -47 5 -58
20 -8 11 -21 20 -30 20 -9 0 -22 9 -30 20 -8 11 -21 20 -28 20 -7 0 -31 18
-52 40 -21 22 -45 40 -52 40 -7 0 -20 9 -28 20 -13 18 -26 20 -142 20 -79 0
-128 -4 -128 -10z"/>
</g>
</svg>
