<?xml version="1.0" standalone="no"?>
<!DOCTYPE svg PUBLIC "-//W3C//DTD SVG 20010904//EN"
 "http://www.w3.org/TR/2001/REC-SVG-20010904/DTD/svg10.dtd">
<svg version="1.0" xmlns="http://www.w3.org/2000/svg"
 width="310.000000pt" height="218.000000pt" viewBox="0 0 310.000000 218.000000"
 preserveAspectRatio="xMidYMid meet">
<metadata>
Created by potrace 1.16, written by Peter Selinger 2001-2019
</metadata>
<g transform="translate(0.000000,218.000000) scale(0.100000,-0.100000)"
fill="#000000" stroke="none">
<path d="M830 2160 c-8 -11 -21 -20 -28 -20 -7 0 -31 -18 -52 -40 -21 -22 -43
-40 -50 -40 -16 0 -80 -67 -80 -85 0 -8 -4 -15 -10 -15 -5 0 -10 -9 -10 -20 0
-11 -4 -20 -10 -20 -5 0 -10 -9 -10 -20 0 -11 -4 -20 -10 -20 -5 0 -10 -22
-10 -48 0 -36 5 -51 20 -62 13 -9 20 -26 20 -47 0 -28 -11 -45 -65 -98 -35
-36 -69 -65 -75 -65 -6 0 -26 -16 -45 -35 -30 -29 -35 -41 -35 -80 0 -25 -4
-45 -10 -45 -5 0 -10 -18 -10 -40 0 -22 -4 -40 -10 -40 -5 0 -10 -13 -10 -30
0 -16 -4 -30 -10 -30 -5 0 -10 -22 -10 -50 0 -27 -4 -50 -10 -50 -5 0 -10 -9
-10 -20 0 -11 -4 -20 -10 -20 -5 0 -10 -12 -10 -26 0 -16 -12 -37 -30 -54 -16
-15 -30 -34 -30 -42 0 -7 -9 -20 -20 -28 -11 -8 -20 -21 -20 -28 0 -7 -18 -31
-40 -52 -22 -21 -40 -44 -40 -50 0 -7 -13 -25 -30 -40 -16 -15 -30 -34 -30
-42 0 -7 -9 -20 -20 -28 -17 -12 -20 -26 -20 -98 0 -75 2 -85 25 -107 32 -33
123 -36 145 -5 13 18 26 20 108 20 l94 0 38 -40 c21 -22 44 -40 50 -40 6 0 29
-18 50 -40 21 -22 45 -40 52 -40 7 0 20 -9 28 -20 8 -11 21 -20 30 -20 9 0 22
-9 30 -20 8 -11 20 -20 28 -20 18 0 42 -25 42 -44 0 -11 9 -16 30 -16 17 0 30
-4 30 -10 0 -5 7 -10 15 -10 23 0 65 -46 65 -70 0 -27 43 -70 70 -70 12 0 39
-18 60 -40 l38 -40 86 0 c51 0 86 4 86 10 0 6 18 10 40 10 38 0 40 2 40 30 0
17 5 30 10 30 6 0 10 14 10 30 0 17 5 30 10 30 6 0 10 9 10 20 0 11 5 20 10
20 6 0 10 23 10 50 0 28 5 50 10 50 6 0 10 -4 10 -10 0 -5 8 -10 18 -10 10 0
24 -9 32 -20 12 -17 26 -20 92 -20 45 0 78 4 78 10 0 18 31 10 55 -15 14 -13
25 -36 25 -50 0 -14 5 -25 10 -25 6 0 10 -9 10 -20 0 -17 7 -20 50 -20 28 0
50 5 50 10 0 6 9 10 20 10 11 0 20 5 20 10 0 6 17 10 38 10 26 0 42 6 52 20
12 16 26 20 72 20 32 0 58 4 58 10 0 6 9 10 20 10 11 0 20 5 20 10 0 6 29 10
66 10 l65 0 59 -60 c32 -33 65 -60 72 -60 8 0 20 -9 28 -20 13 -18 26 -20 130
-20 104 0 117 2 130 20 12 17 26 20 82 20 l68 0 0 30 c0 17 5 30 10 30 6 0 10
7 10 15 0 20 65 85 85 85 12 0 15 13 15 60 0 33 -4 60 -10 60 -20 0 -9 33 20
60 25 23 30 36 30 74 0 25 5 46 10 46 6 0 10 8 10 18 0 10 9 24 20 32 11 8 20
20 20 28 0 22 48 62 75 62 l25 0 0 105 0 106 -70 69 c-75 74 -86 104 -50 130
17 12 20 26 20 88 l0 73 -120 119 -120 119 0 66 c0 37 4 65 10 65 6 0 10 8 10
18 0 10 9 24 20 32 14 10 20 26 20 52 l0 38 -66 0 c-61 0 -68 -2 -95 -31 -26
-27 -30 -29 -44 -16 -8 9 -15 25 -15 37 0 31 -24 50 -64 50 -20 0 -36 5 -36
10 0 6 -27 10 -60 10 -33 0 -60 -4 -60 -10 0 -5 -13 -10 -30 -10 -16 0 -30 -4
-30 -10 0 -5 -18 -10 -40 -10 -22 0 -40 5 -40 10 0 6 -8 10 -18 10 -10 0 -24
9 -32 20 -8 11 -21 20 -30 20 -9 0 -22 9 -30 20 -13 18 -26 20 -162 20 l-148
0 0 -40 c0 -22 5 -40 10 -40 6 0 10 -13 10 -30 0 -30 0 -30 -56 -30 -52 0 -58
3 -94 40 l-38 40 -116 0 c-98 0 -116 -2 -116 -15 0 -20 -44 -65 -64 -65 -8 0
-16 -5 -18 -12 -6 -16 -98 76 -98 97 0 12 -14 15 -76 15 -78 0 -104 11 -104
44 0 9 -4 16 -10 16 -5 0 -10 9 -10 20 0 11 -4 20 -10 20 -5 0 -10 18 -10 40
0 22 -4 40 -10 40 -5 0 -10 14 -10 30 0 17 -4 30 -10 30 -5 0 -10 18 -10 40
l0 40 -68 0 c-56 0 -70 -3 -82 -20z"/>
</g>
</svg>
