<?xml version="1.0" standalone="no"?>
<!DOCTYPE svg PUBLIC "-//W3C//DTD SVG 20010904//EN"
 "http://www.w3.org/TR/2001/REC-SVG-20010904/DTD/svg10.dtd">
<svg version="1.0" xmlns="http://www.w3.org/2000/svg"
 width="232.000000pt" height="170.000000pt" viewBox="0 0 232.000000 170.000000"
 preserveAspectRatio="xMidYMid meet">
<metadata>
Created by potrace 1.16, written by Peter Selinger 2001-2019
</metadata>
<g transform="translate(0.000000,170.000000) scale(0.100000,-0.100000)"
fill="#000000" stroke="none">
<path d="M1820 1655 c0 -35 -6 -52 -25 -70 -13 -14 -31 -25 -40 -25 -8 0 -15
-4 -15 -10 0 -5 -18 -10 -40 -10 -22 0 -40 5 -40 10 0 6 -27 10 -60 10 -33 0
-60 -4 -60 -10 0 -5 -25 -10 -56 -10 -78 0 -84 -9 -84 -120 0 -69 -4 -95 -15
-107 -14 -14 -18 -13 -34 6 -16 18 -29 21 -105 21 -51 0 -86 -4 -86 -10 0 -18
-55 -11 -70 10 -12 17 -26 20 -82 20 -39 0 -68 -4 -68 -10 0 -5 -13 -10 -30
-10 -16 0 -30 -4 -30 -10 0 -5 -8 -10 -18 -10 -10 0 -24 -9 -32 -20 -8 -11
-26 -20 -40 -20 -14 0 -32 -9 -40 -20 -8 -12 -26 -20 -42 -20 -15 0 -28 -4
-28 -10 0 -6 -50 -10 -130 -10 -80 0 -130 -4 -130 -10 0 -5 -8 -10 -18 -10
-10 0 -24 -9 -32 -20 -8 -11 -21 -20 -30 -20 -9 0 -22 9 -30 20 -11 15 -26 20
-58 20 -38 0 -49 -5 -83 -41 l-39 -41 -29 31 c-22 24 -38 31 -65 31 l-36 0 0
-88 c0 -76 3 -89 20 -102 11 -8 20 -22 20 -32 0 -10 5 -18 10 -18 6 0 10 -13
10 -30 0 -16 -4 -30 -10 -30 -5 0 -10 -8 -10 -18 0 -10 -9 -24 -20 -32 -15
-11 -20 -26 -20 -62 0 -41 3 -48 20 -48 11 0 20 -4 20 -10 0 -5 9 -10 20 -10
11 0 20 -4 20 -10 0 -5 14 -10 30 -10 17 0 30 -4 30 -10 0 -5 9 -10 20 -10 11
0 20 -4 20 -10 0 -5 7 -10 15 -10 20 0 85 -65 85 -85 0 -8 5 -15 10 -15 6 0
10 -29 10 -66 0 -63 1 -67 40 -104 26 -25 40 -47 40 -64 0 -14 5 -26 10 -26 6
0 10 -22 10 -50 0 -27 5 -50 10 -50 6 0 10 -18 10 -40 0 -22 5 -40 10 -40 6 0
10 -7 10 -15 0 -9 16 -31 35 -50 33 -34 37 -35 110 -35 74 0 75 0 75 25 0 38
42 75 85 75 19 0 35 5 35 10 0 6 14 10 30 10 17 0 30 5 30 10 0 6 30 10 70 10
40 0 70 -4 70 -10 0 -6 26 -10 58 -10 46 0 60 4 72 20 13 17 26 20 102 20 l88
0 0 60 0 60 50 0 c28 0 50 5 50 10 0 6 18 10 40 10 22 0 40 -4 40 -10 0 -6 27
-10 60 -10 33 0 60 -4 60 -10 0 -6 29 -10 68 -10 56 0 70 -3 82 -20 20 -28
100 -28 120 0 13 18 26 20 142 20 l128 0 0 30 c0 17 5 30 10 30 6 0 10 26 10
58 0 46 4 60 20 72 11 8 20 22 20 32 0 10 5 18 10 18 6 0 10 9 10 20 0 11 5
20 10 20 6 0 10 9 10 20 0 11 5 20 10 20 6 0 10 8 10 18 0 10 9 24 20 32 11 8
20 22 20 32 0 10 5 18 10 18 6 0 10 47 10 120 0 73 -4 120 -10 120 -6 0 -10
43 -10 110 0 67 -4 110 -10 110 -5 0 -10 20 -10 46 0 42 -4 49 -60 104 -48 47
-60 65 -60 90 0 23 -9 40 -30 60 -18 17 -30 38 -30 54 0 14 -4 26 -10 26 -6 0
-10 27 -10 60 0 53 -2 60 -20 60 -11 0 -20 5 -20 10 0 6 -13 10 -28 10 -16 0
-34 8 -42 20 -12 17 -26 20 -82 20 l-68 0 0 -45z"/>
</g>
</svg>
